<svg version="1.1" xmlns="http://www.w3.org/2000/svg" xmlns:xlink="http://www.w3.org/1999/xlink" x="0px" y="0px"
	 viewBox="94.49 0 885.18 283.46" style="enable-background:new 0 0 979.67 283.46;" xml:space="preserve">
<style type="text/css">
	.st0{fill:#FFFFFF;}
	.st1{fill:#B3C7FB;}
	.st2{opacity:0.75;fill:none;}
</style>
<g id="Background">
</g>
<g id="Laag_1">
	<g>
		<g>
			<g>
				<g>
					<path class="st0" d="M313.94,94.49h-48.53c-6.86,0-12.42,5.56-12.42,12.42h42.89h30.48C326.36,100.05,320.8,94.49,313.94,94.49
						z"/>
					<path class="st0" d="M283.46,119.33l0,57.23c0,6.86,5.56,12.42,12.42,12.42l0-82.07C289.02,106.91,283.46,112.47,283.46,119.33
						z"/>
				</g>
				<path class="st0" d="M400.87,94.49h-37.25c-6.86,0-12.42,5.56-12.42,12.42l0,69.65c0,6.86,5.56,12.42,12.42,12.42l0-32.39h37.25
					v32.39c6.86,0,12.42-5.56,12.42-12.42l0-69.65C413.29,100.05,407.73,94.49,400.87,94.49z M376.03,144.16
					c-6.86,0-12.42,5.56-12.42,12.42l0-49.67h37.25v37.25H376.03z"/>
				<path class="st0" d="M500.21,131.74h-24.84c-6.86,0-12.42,5.56-12.42,12.42h37.25v32.39h-37.27l-0.15-69.65h37.42L500.21,131.74
					c6.86,0,12.42-5.56,12.42-12.42l0-12.42c0-6.86-5.56-12.42-12.42-12.42h-37.25c-6.86,0-12.42,5.56-12.42,12.42v69.65
					c0,6.86,5.56,12.42,12.42,12.42h37.25c6.86,0,12.42-5.56,12.42-12.42l0-32.39C512.63,137.3,507.07,131.74,500.21,131.74z"/>
				<path class="st0" d="M611.98,106.91c0-6.86-5.56-12.42-12.42-12.42l0,82.07H562.3l0-82.07c-6.86,0-12.42,5.56-12.42,12.42
					l0,69.65c0,6.86,5.56,12.42,12.42,12.42h37.25c6.86,0,12.42-5.56,12.42-12.42L611.98,106.91z"/>
				<path class="st0" d="M661.65,176.55l0-82.07c-6.86,0-12.42,5.56-12.42,12.42v69.65c0,6.86,5.56,12.42,12.42,12.42h24.84
					c6.86,0,12.42-5.56,12.42-12.42H661.65z"/>
				<path class="st0" d="M785.83,106.91c0-6.86-5.56-12.42-12.42-12.42h-37.25c-6.86,0-12.42,5.56-12.42,12.42l0,69.65
					c0,6.86,5.56,12.42,12.42,12.42l0-32.39h37.25v32.39c6.86,0,12.42-5.56,12.42-12.42V106.91z M773.41,144.16h-24.84
					c-6.85,0-12.41,5.55-12.42,12.4v-49.66h37.25V144.16z"/>
				<path class="st0" d="M864.01,156.58h8.75c6.86,0,12.42-5.56,12.42-12.42v-37.25c0-6.86-5.56-12.42-12.42-12.42h-37.25
					c-6.86,0-12.42,5.56-12.42,12.42v69.65c0,6.86,5.56,12.42,12.42,12.42v-32.39h12.43l22.88,27.86c4.35,5.3,12.18,6.07,17.48,1.71
					L864.01,156.58z M847.92,144.16c-6.85,0-12.41,5.55-12.42,12.4v-49.66h37.25v37.25H847.92z"/>
			</g>
			<g>
				<g>
					<g>
						<g>
							<g>
								<rect x="94.49" y="106.91" class="st0" width="28.35" height="7.56"/>
							</g>
						</g>
						<g>
							<g>
								<rect x="127.56" y="106.91" class="st0" width="28.35" height="7.56"/>
							</g>
						</g>
						<g>
							<g>
								<rect x="160.63" y="106.91" class="st0" width="28.35" height="7.56"/>
							</g>
						</g>
					</g>
					<g>
						<g>
							<g>
								<rect x="94.49" y="119.33" class="st0" width="28.35" height="7.56"/>
							</g>
						</g>
						<g>
							<g>
								<rect x="127.56" y="119.33" class="st0" width="28.35" height="7.56"/>
							</g>
						</g>
						<g>
							<g>
								<rect x="160.63" y="119.33" class="st0" width="28.35" height="7.56"/>
							</g>
						</g>
					</g>
					<g>
						<g>
							<g>
								<rect x="127.56" y="131.75" class="st0" width="28.35" height="7.56"/>
							</g>
						</g>
					</g>
					<g>
						<g>
							<g>
								<rect x="127.56" y="144.16" class="st0" width="28.35" height="7.56"/>
							</g>
						</g>
					</g>
					<g>
						<g>
							<g>
								<rect x="127.56" y="156.58" class="st0" width="28.35" height="7.56"/>
							</g>
						</g>
					</g>
					<g>
						<g>
							<g>
								<rect x="127.56" y="169" class="st0" width="28.35" height="7.56"/>
							</g>
						</g>
					</g>
					<g>
						<g>
							<g>
								<rect x="127.56" y="181.42" class="st0" width="28.35" height="7.56"/>
							</g>
						</g>
					</g>
				</g>
				<path class="st1" d="M94.49,102.05c0-4.17,3.38-7.56,7.56-7.56h79.37c4.17,0,7.56,3.38,7.56,7.56H94.49z"/>
			</g>
		</g>
		<g>
			<rect x="0" y="188.98" class="st2" width="94.49" height="94.49"/>
			<rect x="0" y="0" class="st2" width="94.49" height="94.49"/>
			<rect x="885.18" y="0" class="st2" width="94.49" height="94.49"/>
			<rect x="885.18" y="188.98" class="st2" width="94.49" height="94.49"/>
		</g>
	</g>
</g>
</svg>
