<svg version="1.1" id="Laag_1" xmlns="http://www.w3.org/2000/svg" xmlns:xlink="http://www.w3.org/1999/xlink" x="0px" y="0px"
	 viewBox="0 0 822 822" style="enable-background:new 0 0 822 822;" xml:space="preserve">
<style type="text/css">
	.st0{fill:#ffffff;}
    .st1{fill:#b3c7fb;}
</style>
<g>
	<path class="st1" d="M750.5,71.8C722.8,43.9,687.1,28,652.6,28H170.4c-34.5,0-70.2,16-97.9,43.8c-27.7,27.8-43.6,63.6-43.6,98.1v481.6
		c0,34.5,15.9,70.3,43.6,98.1c27.8,27.8,63.5,43.8,97.9,43.8h482.2c34.5,0,70.2-16,97.9-43.8c27.7-27.8,43.6-63.6,43.6-98.1V169.8
		C794.2,135.3,778.3,99.6,750.5,71.8z M737.6,651.4c0,19.4-10.2,41.1-27.2,58.2c-17,17-38.6,27.2-57.9,27.2H170.4
		c-19.3,0-40.9-10.2-57.9-27.2c-17-17-27.2-38.8-27.2-58.2V169.8c0-19.4,10.2-41.1,27.2-58.2c17-17,38.6-27.2,57.9-27.2h482.2
		c19.3,0,40.9,10.2,57.9,27.2c17,17,27.2,38.8,27.2,58.2V651.4z"/>
	<path class="st0" d="M595.7,249.7v-23.3v-85c-37.6,0-69.4,24.4-80.7,58.2c-5.6-1-11.2-1.5-16.8-1.5l-173.6,0
		c-5.6,0-11.2,0.5-16.8,1.5c-11.3-33.8-43.1-58.2-80.7-58.2v85v23.3c-17.4,21.8-28.3,48.1-28.3,74.5v59.5
		c0,63.1,62.8,126.2,125.8,126.2h15.9c-23.5,0-42.5,19-42.5,42.5v14.2l-53.6,0h0l-28.3-28.3c-16.6-16.6-43.5-16.6-60.1,0l30.1,30.1
		l28.6,28.6l0,0c7.7,7.5,18.2,12.2,29.8,12.2h53.6v28.4V680c23.5,0,42.5-19,42.5-42.5l0-70.7h14.2h4.7v70.7V680
		c23.5,0,42.5-19,42.5-42.5l0-70.7h18.9l0,70.7c0,23.5,19,42.5,42.5,42.5v-42.5v-70.7h4.7h14.2l0,70.7c0,23.5,19,42.5,42.5,42.5
		v-42.5v-85c0-23.5-19-42.5-42.5-42.5h15.9c62.9,0,125.8-63.1,125.8-126.2v-59.5C624.1,297.8,613.1,271.5,595.7,249.7z M341.5,509.9
		c-0.3,0-0.6,0-0.9,0v0L341.5,509.9C341.5,509.9,341.5,509.9,341.5,509.9z M482.3,510c-0.3,0-0.6,0-1,0L482.3,510L482.3,510z
		 M567.4,369.2c0,42.2-42,84.3-84.1,84.3l-143.6,0c-42.1,0-84.1-42.1-84.1-84.3v-30.4c0-42.2,42-84.3,84.1-84.3l143.6,0
		c42.1,0,84.1,42.1,84.1,84.3V369.2z"/>
</g>
</svg>
