<svg version="1.1" id="Laag_1" xmlns="http://www.w3.org/2000/svg" xmlns:xlink="http://www.w3.org/1999/xlink" x="0px" y="0px"
	 viewBox="75 205 698 770.89" style="enable-background:new 75 205 698 770.89;" xml:space="preserve">
<style type="text/css">
	.st0{fill:#0047BA;}
	.st1{fill:#95C6EC;}
	.st2{fill:#1E366C;}
	.st3{fill:#D39D7B;}
	.st4{fill:#DDAB8A;}
	.st5{fill:#BE8669;}
	.st6{fill:#9F6D55;}
	.st7{fill:#4274F1;}
	.st8{fill:#866341;}
	.st9{fill:#6A4530;}
	.st10{fill:#46271A;}
	.st11{fill:#BA8464;}
	.st12{fill:#EABC9F;}
	.st13{fill:#00363C;}
	.st14{fill:#BB8170;}
	.st15{fill:#9F6D5B;}
	.st16{fill:#F1C6AA;}
	.st17{fill:#965A52;}
	.st18{fill:#3B3C34;}
	.st19{fill:#8C654D;}
	.st20{clip-path:url(#SVGID_2_);fill:#F0EEE6;}
	.st21{clip-path:url(#SVGID_2_);fill:#17343C;}
	.st22{clip-path:url(#SVGID_2_);fill:#546C6F;}
	.st23{clip-path:url(#SVGID_2_);}
	.st24{clip-path:url(#SVGID_2_);fill:#FFFFFF;}
	.st25{fill:#633836;}
	.st26{clip-path:url(#SVGID_4_);fill:#F0EEE6;}
	.st27{clip-path:url(#SVGID_4_);fill:#17343C;}
	.st28{clip-path:url(#SVGID_4_);fill:#546C6F;}
	.st29{clip-path:url(#SVGID_4_);}
	.st30{clip-path:url(#SVGID_4_);fill:#FFFFFF;}
	.st31{fill:#6F3D32;}
	.st32{fill:#CF9582;}
	.st33{fill:#C0BDB5;}
	.st34{fill:#9B998F;}
	.st35{fill:#6F6E64;}
	.st36{fill:#E5E3DD;}
	.st37{fill:#D2CFC9;}
	.st38{fill:#86847C;}
	.st39{fill:#AC7C64;}
</style>
<g>
	<path class="st0" d="M612.61,770.88c0.18,1.88-0.67,3.74-0.36,5.48c0.38,2.12,2.93,3.37,2.73,5.73c-0.14,1.73-1.92,2.81-3.54,3.45
		c-9.28,3.71-19.67,2.85-29.61,1.93c-4-0.37-8.09-0.77-11.7-2.52c-3.61-1.76-6.67-5.2-6.8-9.21c-0.1-2.98,1.38-5.74,2.43-8.53
		c1.26-3.36,1.9-6.92,2.54-10.45c1.74-9.63,3.48-19.26,4.82-28.96c0.68-4.94,1.25-9.9,1.67-14.87c0.37-4.52,1.21-8.23-1.19-12.11
		c31.16,12.89,113.04,47.41,116.87,48.98c11.59,4.72,14.58,13.35,10.53,23.53l-76.92-31.83c-4.53-1.98-7.53-0.48-9.62,6.11
		C612.35,754.2,612.61,770.88,612.61,770.88z"/>
	<path d="M563.47,683.82l105.83,43.62c3.09,1.28,4.57,4.82,3.29,7.91l-105.06-43.34L563.47,683.82z"/>
	<path class="st1" d="M337.12,758.29c-0.35-1.49-0.79-2.94-1.46-4.31c-1.73-3.54-4.8-6.21-7.38-9.18
		c-7.02-8.06-10.59-26.7-11.88-37.31c-1.47-12.09,0.69-22.84,2.27-34.63c1.58-11.79-0.27-23.83,2.21-35.52
		c0.71-3.35,1.68-4.17,1.52-7.59c-8.67,8.24-15.51,15.77-24.18,24.01c-10.28,9.76-20.99,18.62-29.67,29.84
		c-0.75,0.96-2.86,1.12-3,2.33c-0.38,3.19,1.79,7.92,2.54,11.01c1.1,4.55,2.2,9.1,3.3,13.65c2.2,9.1,4.4,18.19,6.6,27.29
		c2,8.25-0.55,18.11-1.07,26.48c-0.6,9.6-0.89,19.21-0.73,28.83c0.3,17.54-3,70.23-0.38,70.23c3.97,0,8.92,0.52,8.92,6.3
		c0,5.73-0.38,23.22-0.26,31.49c0.34,23.53,11.81,38.58,35.95,43.83c0.6,0.13,4.2-19.68,7.87-36.22c0.53-2.38,4.72-6.04,10.24-5.25
		c2.8,0.4-0.52-0.26,2.18-12.42c2.07-9.27,7.16-21.7,9.12-30.99c1.63-7.72,1.92-15.64,2.2-23.52c0.56-15.34,11.87-18.46,6.16-32.93
		c-5.24-13.26-17.31-26.82-20.16-40.91C337.73,761.29,337.47,759.77,337.12,758.29z"/>
	<path class="st0" d="M260.98,701.01c-0.5,0.8-3.05,3.6-1.64,4.51c2.25-4.14,4.43-8.31,6.55-12.52c2.47,3,2.75,7.17,3.65,10.95
		c1.05,4.39,3.05,8.48,4.47,12.77c5.42,16.34,2.28,34.4-0.82,50.84c-2.1,11.12-4.87,22.16-9.04,32.7c-1.53,3.88-3.51,7.96-7.2,9.88
		c-3.56,1.85-7.86,1.24-11.77,0.32c-4.8-1.13-8.65-3.07-13.07-5.01c-3.42-1.5-7.08-1.6-9.29-5.25c-1.49-2.47-1.95-5.42-2.15-8.3
		c-0.93-13.39,3.13-26.61,3.87-40.01c0.1-1.84,0.13-3.73-0.49-5.46c-1.35-3.72-6.61-3.09-6.57,0.24c0.05,4.28-8.69,4.04-9.67,1.93
		c-0.22-1.59-3.27-5.59-6.22-4.41c-10.36,4.14-56.49,24.18-67.84,29.13c-4.05-10.18-1.06-18.81,10.53-23.53
		C148.11,748.23,229.82,713.9,260.98,701.01z"/>
	<path class="st2" d="M276.05,739.67c1-6.31,1.87-12.55,0.4-19.39c-1.39-6.43-3.64-12.65-5.12-19.07c-0.74-3.19-1.31-6.49-2.99-9.3
		c-0.25-0.42-0.56-0.85-1.02-1c-0.99-0.33-1.84,0.74-2.33,1.65c-9.52,17.56-17.98,35.7-25.3,54.29c-2.72,6.91-6.05,13.3-9.48,19.89
		c-1.71,3.28-3.34,42.2-3.34,46.05c0,35.11,0,42.47,0,75.85c0,28.87,18.91,39.07,38.96,39.07c0.53-25.22,0.76-45.43,0.76-75.16
		c0-3.33,1.29-7.25,7.12-7.25c5.01,0,0.93-20.9,0.73-25.73c-0.48-11.23,1.27-22.15,1.39-33.41c0.11-10.61-1.23-21.16-1.33-31.76
		C274.46,749.27,275.29,744.45,276.05,739.67z"/>
	<path class="st3" d="M322.87,651.79c-0.36,4.14-0.59,9.21-0.74,13.28c-0.78,21.13-5.5,46.92,7.03,65.14
		c2.49,3.63,5.5,6.91,7.67,10.74c6.35,11.24,4.94,22.91,9.51,34.98c2.21,5.85,7.3,10.5,10.31,15.93c2.58,4.65,4.39,4.83,6.56,9.68
		c2.37-10.49,6.59-12.25,12.49-21.24c3.31-5.04,7.65-9.31,10.93-14.37c3.63-5.6,20.35-16.76,19.24-18.98
		c-2.24-4.49-3.27-11.51,0.74-18.44c1.7-2.94,12.61-10.63,15.12-12.91c4.01-3.64-0.69-5.21,3.32-8.85
		c16.67-15.15,36.27-24.97,52.75-40.58c16.75-15.86,28.84-28.28,28.77-51.64c-0.05-16.67-1.57-23.45-1.62-40.12
		c-9.55,11.47-20.85,21.47-33.38,29.57c-23.38,15.1-51.45,23.43-79.2,21.4c-27.76-2.03-54.96-14.86-72.64-36.36
		c0.55,0.67,1.4,13.86,1.72,16.23C323.7,622.48,324.39,634.16,322.87,651.79z"/>
	<path class="st4" d="M340.45,707.09c7.52,11.68,11.02,15.84,11.02,26.75c0,4.28-0.11,15.81-0.11,32.83l15.13,24.71l11.65-15.74
		c0-7.65,0.25-19.01,0.25-28.89c0-38.88-12.53-65.56-33.6-86.63c-3.84-3.84-8.83-8.61-13.1-13c0,14.89-0.18,36.59-0.18,45.81
		C331.51,692.95,332.48,694.71,340.45,707.09z"/>
	<path class="st5" d="M411.28,722.24c1.52-1.77,3.31-3.15,4.83-4.98c2.44-2.92,5.52-5.51,8.31-8.09
		c5.72-5.29,11.75-10.26,18.37-14.4c6-3.76,11.48-9.69,16.53-14.65c0-1.18,5.72-6.21,5.72-8.28c0-11.74,4.96-17.35,10.82-21.84
		c8.47-6.48,27.84-23.47,27.84-40c0-5.01,3.07,9.03,3.07,14.53c0,1.37-9.1,19.34-9.1,20.93c4.78-3.92,5.73-8.94,7.56-14.84
		c2.78-8.96,2.09-18.4,1.89-27.61c-0.09-4.16-4.17-22.68-1.48-25.15c-12.41,11.37-20.67,24.1-35.97,32.46
		c-14.27,7.8-30.42,12.19-46.63,13.19c-17.5,1.08-35.04-1.39-51.94-5.85c-8.66-2.29-17.18-5.09-25.56-8.24
		c-6.99-2.62-15.9-4.21-21.24-9.73c-2.25,2.29-2.67-1.93-2.67,2.8c0,3.21-0.16,6.41-0.16,9.62c0,4.52,0.31,13.65,1.85,15.18
		c6.51,6.51,36.25,36.15,39.97,39.87c13.14,13.14,32.11,28.99,32.11,67.74c0,3.01,0,17.74,0,21.64c0-2.11,9.01-9.17,9.88-10.84
		c0.55-1.05,0.35-2.32,0.17-3.49c-0.29-1.83-0.53-3.69-0.37-5.53c0.21-2.4,1.09-4.69,2.02-6.92c0.8-1.91,1.66-3.8,2.73-5.57
		C410.27,723.49,410.76,722.84,411.28,722.24z"/>
	<path class="st6" d="M414.13,718.94c9.01-7.94,24.09-21.62,29.61-25.39c3.77-2.83,7.98-7.17,6.59-7.46c0-3.01,0.14-6.86,0.14-10.02
		c0-10.75,2.72-19.87,15.15-29.78c26.94-21.47,38.21-35.13,38.21-48.57c0-8.29,2.64-0.55,2.64-4.08c0-3.01-8.58,7.57-8.58,5.17
		c-6.79,2.42-13.55,0.96-19.06,5.61c-8.64,7.3-19,12.35-29.77,15.8c-6.72,2.15-13.65,3.71-20.68,4.32
		c-8.99,0.78-18.03,0.02-27.03-0.75c-21.66-1.84-30.51-6.42-52.17-8.26c0,8.28-28.11-20.75-28.11-13.08c0,3.44,0.01,11.5,2.59,14.08
		c4.59,4.59,7.34,7.34,9.93,9.93c10.8,10.8,25.14,22.84,45.75,33.04c24.15,11.96,34.94,22.95,34.94,46.39
		C414.28,713.13,414.13,718.94,414.13,718.94z"/>
	<path class="st1" d="M336.94,959.91c19.71,4.19,46.9-4.99,58.71-26.84c3.82-7.06,41.1-80.1,57.45-112.8
		c2.1-4.19,5.03-5.03,9.64-2.52c5.58,3.04,24.49-25.87,27.08-31.59c3.23-7.15,6.07-14.46,8.79-21.82
		c5.2-14.06,9.8-28.36,15.52-42.22c0.98-2.38,1.89-4.8,2.71-7.24c4.14-12.34,6.18-30.01,6.08-43.03c-0.12-15.35-1.14-25.9-4.11-40.7
		c-0.83-4.12-4.1-14-9.41-15.32c-5.52,12.2-12.52,29.42-21.22,39.15c-9.49,10.62-19.22,21.21-30.64,29.81
		c-5.89,4.43-12.78,7.01-18.72,11.12c-5.8,4.02-10.92,10.53-16.08,15.45c-1.3,1.24-2.61,2.48-3.91,3.72
		c-6.53,6.21-8.18,10.58-11.7,19.09c-1.54,3.71-0.89,6.84-1.72,10.64c-0.98,4.5-7.18,7.84-5.06,11.76c2.15,3.99,0,8.29-3.38,11.05
		c-18.73,15.35-27.63,41.45-31.52,60.61L336.94,959.91z"/>
	<path class="st7" d="M443.03,731.09c-11.67,8.6-35.31,27.02-35.31,27.02c2.24,3.87,1.63,7.55-3.69,11.65
		c-18.96,14.58-27.01,35.95-32.43,60.94l-14.23,64.67c4.3,0.61,6.36-1.79,7.06-4.91c5.66-25.18,4.73-20.67,8.58-38.88
		c3.38-15.97,10.4-41.41,30.08-56.27c11.68-8.81,43.5-32.49,54.14-40.48L443.03,731.09z"/>
	<path class="st0" d="M483.92,777.7c-8.02,11.44-23.83,28.4,0.72,31.6c9.74,1.27,19.72,1.8,29.4,3.37
		c7.62,1.24,15.86,2.75,22.72-2.24c2.65-1.93,4.57-4.67,6.44-7.36c10.38-14.95,20.88-30.15,26.74-47.37
		c4.56-13.43,6.35-27.91,2.18-41.62c-2.88-9.45-7.22-14.79-12.37-19.52c-10.22-9.41-24.47-22.32-34.15-31.46
		c-2.88,14.52,0.22,34.03-6.77,47.09c-6.53,12.2-11.56,25.29-19,37.11c-4.9,7.78-10.45,22.64-15.73,30.17
		C484.04,777.53,483.98,777.61,483.92,777.7z"/>
	<path class="st2" d="M531.79,690.78c7.53,6.99,15.64,14.49,23.66,21.78c14.79,13.44,16.13,43.02,2.69,68.57
		c-5,9.49-37.17,81.5-43.78,78.02c-5.55-2.92-8.48-0.4-10.53,3.27c-12.39,22.25-25.36,45.6-35.81,64.24
		c-12.9,23.01-44.63,21.71-55.52,15.61c16.55-33.11,20.24-41.8,40.51-80.59c3.82-7.31,0.98-9.91-2.61-13.5
		c-0.44-0.44,26.6-68.97,33.73-65.97c5.02,2.11,9.13-1.59,11.18-5.7c4.55-9.09,15.58-30.96,24.37-49.15
		C527.48,711.22,531.52,698.58,531.79,690.78z"/>
	<path class="st2" d="M700.69,780.41c-24.42-10.36-118-50.61-126.63-54.28c1.86,4.11,0.29,11.09-1.83,18.44
		c-0.05-0.03-0.1-0.06-0.16-0.1c-5.09,20.87-28.36,62.83-26.49,64.07c4.98,3.32,3.42,7.95,0.56,13.28
		c-11.44,21.28-31.1,55.99-49.1,88.68c5.74,0,21.23-0.02,28.12-0.02c13.95,0,28.33-5.46,40.39-24.31
		c6.82-10.67,18.61-29.96,21.29-34.19c8.36-13.19,15.6-17.23,30.75-17.23c17.86,0,103.1-0.37,113.43-0.37
		C731.01,814.22,731.39,793.44,700.69,780.41z"/>
	<path d="M313.95,683.75c-0.45,4.54-0.69,9.08-0.6,13.64c0.22,11.1,2.46,21.45,8.49,30.83c1.41,2.2,2.84,4.42,4.63,6.33
		c1.1,1.17,2.33,10.25,3.45,11.41c6.98,7.22,6.74,17.22,9.41,26.27c3.35,11.35,12.84,21.04,17.93,31.64
		c0.54,1.11,1.68,5.78,3.61,4.49c3.56-2.38,4.89-8.59,3.29-11.19c-7.26-11.83-18.74-30.64-18.74-31.1c0-13.63-0.73-20.69-6.33-29.93
		c-4.48-7.4-10.22-16.06-15.81-25.7c-6.5-11.22,0.08-35.51-6.39-47.24C315.76,670.03,314.63,676.88,313.95,683.75z"/>
	<path class="st7" d="M282.42,694.64c3.46,5.8,6.86,11.7,10.86,17.1c3.48,4.69,2.77,11.01,6.67,15.36
		c3.02,3.37,7.96,8.55,9.29,12.96c0.29,0.97,0.03,7.89,3.1,4.84c2.85-2.84,1.63,2.45,4.63,5.13c5.5,4.92,7.54,8.49,9.47,15.6
		c1.61,5.93,10.79,11.91,12.96,17.66c1.87,4.97,5.62,10.13,8.4,14.65c3.32,5.4,7.09,8.54,9.43,12.45c2.04,3.42,3.02,7.51,1.34,12.99
		c2.41-8.54,5.85-12.67,5-19.29c-0.94-7.3,0.62,4.69-3.34-1.52c-9.79-15.33-21.62-34.84-21.62-35.05c0-1.93,0.14-8.15,0.14-9.88
		c0-8.63-1.68-13.12-6.71-20.67c-1.95-2.92-5.35-8.52-9.37-15.41c-4.02-6.9-3.51-36.49-3.3-44.44c0.16-5.67,2.13-4.45,2.5-10.21
		c0.39-6.03,1.16-12.04,1.33-18.09c0.09-3.21,1.73-7.04-3.72-1.98c-14.46,13.42-30.46,26.85-41.56,36.91
		c-0.75,0.68,1.18,3.92,1.3,4.92c0.09,0.79,0.52,1.5,0.94,2.18C280.91,692.11,281.67,693.37,282.42,694.64z"/>
	<path class="st7" d="M484.18,680.55c-7.74,6.16-26.06,20.01-37.22,28.73c-2.86,2.24-7.14,0.66-8.66-1.32
		c21.41-16.47,37.23-29.15,54.05-42.57c13.19-10.52,25.39-31.25,21.72-44.94c7.82,1.24,4.92,18.71,6.81,27.15
		c1.14,5.1,2.29,10.22,2.78,15.42c0.84,8.94-0.29,22.58-2.06,31.39c-2.37,11.81-5.91,23.39-10.53,34.51
		c-4.12,9.9-23.52,47.87-29.13,57.04c-4.82,7.88-7.7,1.96-9.81-2.56c7.89-14.13,23.52-43.71,30.94-59.66
		c2.58-5.55,0.3-7.44-2.13-8.68c-6.97,14.25-11.76,23.54-17.67,35.08c-4.08-6.33-6.37-12.03-3.66-17.59
		c5.91-12.1,13.16-27.3,18.41-39.56c2.14-4.99,2.09-10.12-1.16-13.38C493.95,676.7,489.3,676.48,484.18,680.55z"/>
	<path class="st7" d="M285.37,779.71c0,0-0.42,37.95-0.42,44.03c0,5.24-3.35,6.08-6.5,6.08c-0.47-4.13-2.19-8.28-2.68-12.49
		c-2.44-21.25-0.83-29.05,0.37-50.41c0.31-5.55-1.54-12.59-0.97-18.12c0.58-5.67-0.19-11.44,1.6-16.92
		c1.25-3.82,2.5-7.64,4.12-11.32c0.68-1.54-1.77-10.48-0.29-11.28c3.65-1.97,10.31,12.15,12.01,14.48
		c3.17,4.33,9.38,5.85,12.08,10.49c4.31,7.42,32.99,54.23,38.41,61.58c-6.02,4.47-13.87,5.47-19.1-1.72
		c-4.13-5.68-21.44-31.6-21.44-31.6C302.57,770.07,297.32,779.71,285.37,779.71z"/>
	<path d="M522.39,651.18c5.37,5.44,25.89,24.24,43.33,41.01c6.48,6.23,8.01,18.94,8.03,25.17c0.14,21.33-5.34,38.61-19.28,64.4
		c-15.8,29.23-62.71,114.97-81.71,148.22c5.23,2.38,6.81,1.05,9.03-2.85c15.68-27.55,63.15-114.22,78.39-142.05
		c10.93-19.95,20.15-42.91,20.15-66.09c0-6.24-2.6-25.52-12.72-33.85c-2.79-2.29-43.21-39.84-45.52-42.41L522.39,651.18z"/>
	<path class="st2" d="M143.34,776.43c-23.19,10.08-33.51,29.32-32.26,58.07c10.28,0,26.81-0.01,35.81-0.01
		c13.64,0,21.29,6.46,27.09,18.86c3.27,6.99,9,18.57,11.26,23.24c5.39,11.13,17.08,20.07,35.95,20.07c0-16.29,0-56.35,0-66.42
		c0-3.49,1.54-7.63,6.87-8.08c1.38-0.11,1.8-8.51,2.14-9.86c0.48-1.96,18.35-17.55,16.4-18.08c-7.68-2.09,3.18-6.55,4.92-16.67
		c1.73-10.01-10.13-37.14-6.01-46.24C236.88,734.98,165.04,767,143.34,776.43z"/>
	<path class="st2" d="M657.63,841.11c0,3.4-2.76,6.16-6.16,6.16l-102.76-0.03c-3.4,0-6.16-2.76-6.16-6.16L657.63,841.11z"/>
	<path d="M267.2,685.46l-101.77,41.98c-3.09,1.28-4.57,4.82-3.29,7.91l105.06-43.34V685.46z"/>
	<path d="M273.08,719.29l-0.5,213.91c-0.01,3.35,2.69,6.07,6.03,6.09l0.51-198.48L273.08,719.29z"/>
	<path d="M319.48,598.43c3.35-0.01,6.05,7.68,6.03,4.33c0,0,0,113.23,0,129.62c0.01,3.35-2.69,6.07-6.03,6.09V598.43z"/>
	<path d="M264.15,684.02l39.07,62.71c1.77,2.84,5.51,3.71,8.34,1.95l-43.45-69.77L264.15,684.02z"/>
	<path class="st1" d="M274.49,681.64l18.15,71.64c0.82,3.24-1.14,6.54-4.39,7.36l-20.63-79.84L274.49,681.64z"/>
	<path class="st1" d="M272.47,685.96l76.22,122.16c1.77,2.84,5.51,3.71,8.34,1.95l-80.6-129.22L272.47,685.96z"/>
	<path d="M353.71,821.95c-5.6,24.41-20.67,89.11-27.93,127.74c-0.81,4.33,1.24,8.07,4.9,9.17c10.03-47.17,19-87.39,29.22-133.75
		c8.21-37.21,23.87-56.25,40.12-68.46c7.07-5.31,10.59-8.09,10.59-8.09c-5.6-9.43-4.94-17.51,6.01-25.93
		c2.81-2.16,6.31-4.84,10.43-8.03c0.34-0.26-2.19-4.1,1.39-6.85c13.6-10.45,47.58-37.28,56.14-44.1c16.95-13.48,25-28.82,25-49.18
		l0.19-35.01c-1.61,0.97-4.18,10.43-5.94,11.1c0,4.9-0.17,10.58-0.17,23.39c0,13.22-2.48,28.61-23.51,45.32
		c-14.78,11.75-33.89,26.78-57.24,45.11c-2.91,2.29-1.8,7.21-1.92,7.3c-16.63,11.69-23.6,23.56-17.89,34.63c0,0-2.44,1.59-9.21,7.18
		C377.94,766.71,361.67,787.28,353.71,821.95z"/>
	<g>
		<path class="st7" d="M440.07,726.3c0.36,1.01,1.56,3.18,2.61,5.03c0.66-0.63,1.36-1.2,2.1-1.71c-0.18-0.35-0.34-0.71-0.52-1.06
			c-1.57-2.95-3.95-9.96-7.83-9.56c-1.1,0.12-3.69-1.78-4.6-1.15c-3.2,2.24-8.75,6.82-10.98,8.56c-8.63,6.73-8.89,12.53-5.1,18.26
			C424.92,737.81,431.72,732.56,440.07,726.3z"/>
		<path class="st7" d="M475.55,777c-0.87,0.77-10.75-12.16-12.51-13.77c-1.44-1.32-4.78-10.07-6.51-10.96
			c-3.23-1.67-5.18-14.93-8.7-14.03c-3.19,0.81,0.41-2.78-2.25-0.82c-0.99,0.73-18.21,21.98-19.26,21.7
			c8.39,13.46,12.09,19.89,17.36,28.28c3.74,5.95,4.21,12.97,1.23,19.04c-11.6,23.69-25.78,53.83-41.73,86.21
			c-1.83,3.71-2.9,10.63,0.13,12.56c21.62-42.04,29.84-59.45,49.66-98.6c2.59-5.11,9.67-14.5,20.3-9.67
			c0.98,0.45,30.28-51.74,33.72-64.8C498.05,745.16,487.41,766.57,475.55,777z"/>
	</g>
	<path d="M507.83,618.71c3.27,0,6.17,0.44,7.46,5.59c1.68,6.69,4.15,22.59,5.76,30.37c6.32,30.57-6.65,58.15-20.36,85.94
		c-13.36,27.08-49.37,95.99-104.46,205.02c4.8,2.39,8.27-1.19,9.86-4.29c6.52-12.7,91.84-183.71,99.13-198.44
		c13.94-28.16,29.2-59.47,20.1-96.18c-1.78-7.2-4.1-21.05-4.83-24.62c-1.65-8.07-7.59-10.03-12.2-10.03L507.83,618.71z"/>
	<path d="M431.59,717.96l35.48,57.1c1.77,2.84,5.51,3.71,8.34,1.95l-35.4-57C436.67,714.68,431.59,717.96,431.59,717.96z"/>
	<path d="M538.65,421.34l-258.36-0.08l-1.13-4.19c-5.47-20.32-7.32-34.65-7.32-56.79V335.8c0-57.65,62.68-106.36,136.87-106.36
		c39.1,0,75,12.45,101.1,35.06c23.06,19.97,36.82,46.62,36.82,71.29v20.63c0,22.75-0.65,35.36-6.92,60.62L538.65,421.34z"/>
	<path class="st8" d="M534.22,415.63c6.02-24.26,6.75-36.15,6.75-59.26v-21.41c0-40.27-48.9-99.91-132.27-99.91
		c-69.36,0-131.21,45.14-131.21,100.7v24.48c0,21.84,1.8,35.54,7.13,55.32L534.22,415.63z"/>
	<path class="st9" d="M456.81,249.67c0.45,0.07,0.95,0.27,1.37,0.47c0.66,0.32,1.42,0.91,2.09,1.21c1.68,0.76,3.38,1.48,5.07,2.22
		c1.9,0.83,4.09,1.53,5.85,2.64c1.26,0.79,2.2,2.29,3.08,3.46c0.56,0.74,1.15,1.47,1.92,2c2.69,1.85,6.49,0.56,9.01,2.58
		c2.25,1.8,4.93,4.35,4.93,7.47c0,5.74,0.65,7.58,0.65,7.58c13.4,6.48,22.84,34.61,22.84,48.01s0,88.26,0,88.26l20.62,0.07
		c6.02-24.26,6.75-36.15,6.75-59.26v-21.41c0-44.44-53.18-102.91-136.54-102.91l19.36,6.85l13.22,7.74
		C437.01,246.65,456.8,249.67,456.81,249.67z"/>
	<path class="st3" d="M540.01,410.05c2.04-1.38,4.16-2.74,6.55-3.33s7.53-0.67,9.34,1c1.31,1.21,3.84,2,4.39,3.7
		c2.14,6.6,1.43,10.56,1.36,17.5c-0.04,4.24-2.99,12.79-3.45,17.01c-0.57,5.17-1.14,10.35-1.7,15.52
		c-0.87,7.93-1.74,15.87-2.61,23.8c-0.75,6.86-1.85,14.4-7.08,18.9c-3.26,2.8-7.61,3.92-11.79,4.94c-0.69,0.17-1.46,0.33-2.09,0
		c-0.89-0.47-1.06-1.65-1.13-2.66c-0.5-8.11-1-16.22-1.5-24.33c-0.19-3.01-0.37-6.04,0.08-9.01c0.36-2.35,1.1-4.62,1.56-6.96
		c0.51-2.63,0.65-5.32,0.79-8c0.37-7.21,0.74-14.45,0.28-21.65c-0.25-3.84-0.72-7.77,0.35-11.46c0.94-3.25,2.14-6.22,2.87-9.51
		C536.79,412.88,537.64,411.65,540.01,410.05z"/>
	<path class="st5" d="M550,419.93c2.31-3.24,4.05-3.56,5.79-3.22c1.59,0.3,3.35,1.46,2.98,5.08c-0.31,2.97,1.42,12.26,0.74,15.17
		c-1.84,7.89-2.16,9.43-4,17.32c0.45-2.75,0.03-6.75-1.57-10.6c-0.9-2.18-1.3-3.06-1.9-4.52c-1.02-2.47-2.85-2.88-4.26-1.99
		c-1.51,0.96-1.48,2.95-0.58,4.41c0.53,0.87,1.98,3.33,2.63,4.31c1.25,1.88,2.24,4.33,2.02,6.63c-0.43,4.48-1.75,18.94-2.09,22.98
		c-0.2,2.4-1.5,4.03-3.56,4.03c-1.64,0-2.61,1.32-2.61,3.03c0,6.19,0,8.29,0,15.57c0,3.07-4.27,1.88-7.21,1.88
		c-3.39,0-1.59-26.05-0.91-28.1c1.17-3.55,2.18-6.41-0.37-9.14c-0.72-0.77,0.5-3.28-0.12-4.14c-0.74-1.02-0.95-2.33-1.09-3.58
		c-0.62-5.67-2.02-36.56,2.57-33.04C541.13,425.55,546.02,425.5,550,419.93z"/>
	<path class="st5" d="M536.55,498.24c-3.25,0-0.99-0.98-3.62-3.4c0.19,5.7,0.05,11.42-0.4,17.1c-0.06,0.77,15.06-6.46,16.38-8.07
		c5.13-6.26,4.26-11.01,6.32-18c-1.18,4-2.11-6.73-2.42-2.57C552.03,493.68,544.93,498.24,536.55,498.24z"/>
	<path d="M551.22,408.61c4.34,0,8.64,3.34,7.58,12.87c-0.85,7.63-4.11,42.95-6.18,63.47c-1.78,17.57-8.79,21.75-16.6,21.75
		c-1.09,2.05-5.17,5.56-2.97,6.3c2.19,0.75,0.78-1.02,3.1-1.02c11.84,0,19.53-8.44,21.01-23.29c2.77-27.91,5.34-55.17,6.43-67.63
		c1.11-12.69-6.04-17.69-13.2-17.69c-4.06,0-8.31,1.29-11.63,6c-0.8,1.13-2.42,3.66-3.24,5.15c-0.46,0.83-1.32,1.83-1.96,2.52
		c-1.83,1.94,2.95,0.67,2.06,3.18c1.72-0.27-0.21,4.19,0.73,2.72c2.24-3.51,4.04-5.96,6.28-9.33
		C544.66,410.57,547.43,408.61,551.22,408.61z"/>
	<path class="st10" d="M541.45,475.6c3.35,0,4.63-2.08,4.82-4.57c0.26-3.34,0.96-13.62,1.11-15.68c0.21-3.1-1.07-5.67-2.74-7.57
		c-0.58-0.67-1.67-1.85-2.18-2.46c-2.16-2.61-1.66-5.41-0.04-7.7c0.91-1.29,1.71-2.42,4.39-6.1c0.08-0.11,2.28,0.02,3.28,2.79
		c0.54,1.49,2.09,5.08,3.85,9.35c0-4.42,0.04-16.42,0.04-18.56c0-4.54-3.98-5.16-3.98-5.16c-4.79,6.68-9.57,13.61-13.69,19.12
		c-3.46,4.63-3.04,10.28-2.42,15.96c0.14,1.26-0.38,2.49-0.38,3.75c0,2.25,0.09,2.21,0.09,4.01c0,2.63,0.65-9.6,0.65-6.24
		c0.65,0,2.18,0.02,3.46,0.02c2.17,0,3.72,1.59,3.72,4.81L541.45,475.6z"/>
	<path class="st4" d="M277.96,410.05c-2.04-1.38-4.16-2.74-6.55-3.33c-2.39-0.59-7.53-0.67-9.34,1c-1.31,1.21-3.84,2-4.39,3.7
		c-2.14,6.6-1.43,10.56-1.36,17.5c0.04,4.24,2.99,12.79,3.45,17.01c0.57,5.17,1.14,10.35,1.7,15.52c0.87,7.93,1.74,15.87,2.61,23.8
		c0.75,6.86,1.85,14.4,7.08,18.9c3.26,2.8,7.61,3.92,11.79,4.94c0.69,0.17,1.46,0.33,2.09,0c0.89-0.47,1.06-1.65,1.13-2.66
		c0.5-8.11,1-16.22,1.5-24.33c0.19-3.01,0.37-6.04-0.08-9.01c-0.36-2.35-1.1-4.62-1.56-6.96c-0.51-2.63-0.65-5.32-0.79-8
		c-0.37-7.21-0.74-14.45-0.28-21.65c0.25-3.84,0.72-7.77-0.35-11.46c-0.94-3.25-2.14-6.22-2.87-9.51
		C281.18,412.88,280.33,411.65,277.96,410.05z"/>
	<path class="st11" d="M267.97,419.93c-2.31-3.24-4.05-3.56-5.79-3.22c-1.59,0.3-3.35,1.46-2.98,5.08
		c0.31,2.97-1.42,12.26-0.74,15.17c1.84,7.89,2.16,9.43,4,17.32c-0.45-2.75-0.03-6.75,1.57-10.6c0.9-2.18,1.3-3.06,1.9-4.52
		c1.02-2.47,2.85-2.88,4.26-1.99c1.51,0.96,1.48,2.95,0.58,4.41c-0.53,0.87-1.98,3.33-2.63,4.31c-1.25,1.88-2.24,4.33-2.02,6.63
		c0.43,4.48,1.52,16.2,1.89,20.24c0.36,4.01,2.61,6.77,6.26,6.77c0.73,0,1.58-0.01,2.24-0.01c0.01,0,0.03-12.12,0.03-25.24
		c0-1.97,1.18-3.28,2.76-4.21c2.54-1.5,2.65-9.72,2.35-10.16C279.15,436.28,271.95,425.5,267.97,419.93z"/>
	<path class="st11" d="M281.42,498.24c3.25,0,0.99-0.98,3.62-3.4c-0.19,5.7-0.05,11.42,0.4,17.1c0.06,0.77-15.06-6.46-16.38-8.07
		c-5.13-6.26-4.26-11.01-6.32-18c1.18,4,2.11-6.73,2.42-2.57C265.95,493.68,273.04,498.24,281.42,498.24z"/>
	<path d="M266.76,408.61c-4.34,0-8.64,3.34-7.58,12.87c0.85,7.63,4.11,42.95,6.18,63.47c1.78,17.57,8.77,21.75,17.27,21.75
		c1.09,2.05,4.5,5.56,2.3,6.3c-2.19,0.75,0.23-1.02-2.09-1.02c-13.39,0-20.54-8.44-22.01-23.29c-2.77-27.91-5.34-55.17-6.43-67.63
		c-1.11-12.69,6.04-17.69,13.2-17.69c4.06,0,8.31,1.29,11.63,6c0.8,1.13,1.16-0.82,1.99,0.67c0.46,0.83,1.32,1.83,1.96,2.52
		c1.83,1.94,0.69,6.93,1.58,9.44c-1.72-0.27-0.32,5.24-1.26,3.77c-2.24-3.51-5.9-8.8-8.14-12.17
		C273.31,410.57,270.54,408.61,266.76,408.61z"/>
	<path class="st10" d="M276.53,475.6c-3.35,0-4.59-1.66-4.82-4.57c-0.26-3.34-0.96-13.62-1.11-15.68c-0.21-3.1,1.07-5.67,2.74-7.57
		c0.58-0.67,1.67-1.85,2.18-2.46c2.16-2.61,1.66-5.41,0.04-7.7c-0.91-1.29-1.71-2.42-4.39-6.1c-0.08-0.11-2.28,0.02-3.28,2.79
		c-0.54,1.49-2.09,5.08-3.85,9.35c0-4.42-0.04-16.42-0.04-18.56c0-4.54,3.98-5.16,3.98-5.16c4.79,6.68,9.57,13.61,13.69,19.12
		c3.46,4.63,3.04,10.28,2.42,15.96c-0.14,1.26,0.38,2.49,0.38,3.75c0,2.25-0.09,2.21-0.09,4.01c0,2.63-0.65-9.6-0.65-6.24
		c-0.65,0-2.18,0.02-3.46,0.02c-2.17,0-3.72,1.59-3.72,4.81L276.53,475.6z"/>
	<path d="M281.18,418.06l0,76.51c0,37.06,8.31,76.89,35,103.58c4.28,4.28,13.81,14.03,17.26,17.48
		c21.67,21.67,48.48,29.28,69.45,29.28c4.81,0,9.91-0.14,14.16-0.14c17.38,0-56.25-8.8-81.5-64.19
		c-1.06-2.34-7.51-12.39-10.03-12.01c-3.08,0.46-5.7-2.13-7.71-4.53c-3.07-3.67-6.04-7.43-8.9-11.27
		c-3.16-4.26-6.21-8.64-8.47-13.44c-5.7-12.11-10.79-25.97-11.03-39.37c-0.53-28.94-1.07-53.56-1.6-82.5L281.18,418.06z"/>
	<path d="M537.64,419.26v89.76c0,37.06-7.01,62.13-30.06,85.18c-4.51,4.51-20.33,20.36-23.79,23.82
		c-17.23,17.23-39.52,26.85-60.64,26.85c-4.85,0-16.35,0.05-20.63,0.05c-17.51,0,83.28-77.76,83.44-77.85
		c2.24-1.26,4.77,1.13,7.31,1.5c3.1,0.46,5.74-2.13,7.76-4.53c3.09-3.67,6.08-7.43,8.96-11.27c3.19-4.26,6.26-8.64,8.53-13.44
		c5.74-12.11,6.09-25.97,6.34-39.37c0.54-28.94,1.08-52.59,1.61-81.53L537.64,419.26z"/>
	<path class="st4" d="M325.11,356.91c-23.22,0-33.84,20.44-33.84,47.1c0,4.56,0,9.65,0,12.53c0,1.7-3.14,2.89-0.61,2.93
		c3.16,0.05,6.31,0.05,9.47,0.02c2.16-0.02,4.34-0.07,6.44-0.61c1.6-0.41,3.11-1.11,4.61-1.8c4.59-2.13,10.58-4.17,14.09-7.95
		c6.02-6.46,2.59-16.82,3.7-25.59c1.45-11.42,2.28-22.01,2.28-33.63C331.24,349.11,322.73,367.47,325.11,356.91z"/>
	<path class="st12" d="M288.75,494.62c-1.08,5.9,2.06,8.79,3.37,14.65c3.84,17.06,6.98,34.32,10.15,51.45
		c3.39,18.26,23.73,27.62,34.72,42.09c1.75,2.31,4.66,6.41,7.13,7.93c2.42,1.49-0.86,5.4,1.93,5.94
		c26.74,5.23,50.09,10.48,77.25,8.45c27.17-2.03,58.63-12.27,76.05-33.22c8.65-10.41,12.15-23.57,14.82-36.56
		c1.38-6.71,2.07-11.54,2.06-18.43c-0.02-7.01,1.03-14.02,3.11-20.72c1.28-4.12,2.95-8.13,3.81-12.35
		c0.88-4.29,0.91-8.71,0.93-13.09c0.12-21.56,0.32-42.99,0-64.51c-0.34-23.05-5.47-23.72-5.81-46.77
		c-0.15-10.03-0.29-21.59-0.44-31.63c-0.23-15.3,0.59-31.48-6.38-45.1c-8.71-17.02-32.57-30.95-49.33-31.15
		c-11.43-0.14-20.35,7.64-31.48,5.63c-8.7-1.57-26.44-2.29-35.29-1.48c-22.1,2.01-38.22-1.25-58.71,7.29
		c-8.75,3.65-17.56,8.11-23.39,15.58c-7.93,10.16-8.93,23.92-9.62,36.79c-0.64,12.05-1.29,24.1-1.93,36.16
		c-0.29,5.48-0.55,11.17,1.57,16.23c2.25,5.38,6.94,9.39,9.62,14.58c1.88,3.63,2.81,10.2-0.56,13.37c-4.05,3.79-20.8-1.8-24.24,4.73
		L288.75,494.62z"/>
	<path class="st9" d="M532.23,417.11l0.18,92.42c0,30.28-5.02,56.64-29.12,80.73c-12.55,12.55-19.03,19.06-23.79,23.82
		c-17.23,17.23-39.14,24.6-60.26,24.6c-7.03,0-8.1,0.03-15.13,0.04c-2.63,0-13.56-1.15-14.07-4.46c-0.65-4.18,4.4-3.28,7.4-4.26
		c3.36-1.1,7.67-22.4,11.08-23.34c3.93-1.08,15.52-2.46,18.4,0.43c2.04,2.04,4.34,2.06,9.7,1.8c6.21-0.3,4.81,0.14,12.42-5.03
		c7.96-5.42,21.15-29.52,26.81-37.32c2.43-3.35,6.25,7.46,8.06,3.75c1.7-3.48,2.58-0.95,4.99-3.82
		c3.09-3.67,14.89-12.85,17.77-16.69c3.19-4.26,7.31-27.97,9.59-32.77c5.74-12.11,5.04-6.65,5.29-20.05
		c0.54-28.94,1.08-50.58,1.61-79.53L532.23,417.11z"/>
	<path class="st3" d="M519.2,531.95v-13.51c6.2-7.5,8.37-17.05,8.37-26.78c0-0.04,0-90.56,0-90.56c0-26.17-22.31-49.73-45.53-49.73
		c2.37,10.55,4.74-2.26,4.74-1.45c0,11.61,0.83,22.21,2.28,33.63c1.12,8.76-2.32,19.12,3.7,25.59c3.42,3.67,8.87,4.66,12.75,7.84
		l-17.89-1.18c17.08,0,30.93,13.85,30.93,30.93v24.34c0,17.08-13.19,29.27-25.92,29.27c-22.45,0-37.15-17.43-49.47-17.43l2.69,7.81
		l-8.03,12.21l0.67,2.34l43.01,5.58c0,0,4,50.06,3.49,50.06c-0.5,0,13.73,4.85,13.73,4.85l16.74-20.12
		C517.28,543.83,519.2,531.95,519.2,531.95z"/>
	<path class="st4" d="M291.41,468.35c0,24.85,12.02,35.94,30.21,35.94c21.28,0,41.17-21.37,55.08-21.37
		c-2.95,9.23,1.68,19.96,9.64,19.11c2.22-0.24,4.47,0.92,6.69,0.85c2.23-0.07,4.73,0.82,5.58,2.88c1.27,3.07,0.76,4.21-2.09,5.92
		c-5.52,3.29-11.71,5.46-18.08,6.33c-9.25,1.26-27.73-1.65-33.76,6.62c-1.78,2.44-2.87,5.32-3.67,8.24
		c-2.78,10.18,6.48,23.79,5.97,34.23c-0.49,10.04-3.06,18.98-2.68,28.98c-1.19,1.16-3.13,0.05-4.37-1.05
		c-7.26-6.49-15.09-12.89-20.3-21.13c-3.97-6.29-9.61-11.38-14-17.38c-5.12-7-16.29-30.91-17.04-39.79
		C287.27,500.9,288.55,482.31,291.41,468.35z"/>
	<path class="st3" d="M477.05,275.27c23.23,0,42.05,18.83,42.05,42.06l0,63.67c0,23.23-18.83,42.05-42.05,42.05L477.05,275.27z"/>
	<path class="st4" d="M333.09,302.06c-7.33,6.98-9.67,7.75-10.58,17.83c-2.07,23.01-0.31,46.36,5.2,68.79
		c1.08,4.41,2.32,8.87,2.16,13.42c-0.16,4.54-1.98,9.29-5.79,11.77c-15.28,9.93-25.96-22.96-25.96-32.7c0,0,0-63.67,0-63.67
		c0-23.22,18.82-42.05,42.05-42.06h125.67c23.22,0,42.05,18.83,42.05,42.06c0,0,0,63.67,0,63.67c0,9.74-10.69,42.63-25.96,32.7
		c-3.81-2.48-5.63-7.22-5.79-11.77c-0.16-4.54,1.07-9,2.16-13.42c5.5-22.44,7.27-45.78,5.2-68.79c-0.91-10.09-2.63-10.85-9.96-17.83
		H333.09z"/>
	<path class="st12" d="M334.83,399.74c-14.19,0-25.7-11.51-25.7-25.7l0-54.29c0-14.19,11.51-25.7,25.7-25.7h135.06
		c14.19,0,25.7,11.51,25.7,25.7v54.29c0,14.19-11.51,25.7-25.7,25.7H334.83z"/>
	<path class="st12" d="M453.23,331.19c14.19,0,25.7,11.51,25.7,25.7l0,38.91c0,14.19-11.51,25.7-25.7,25.7L453.23,331.19z"/>
	<path class="st3" d="M340.91,534.59c0-13.16,9.5-23.83,21.22-23.83h97.83c11.72,0,21.22,10.67,21.22,23.83H340.91z"/>
	<path class="st4" d="M429.79,573.26c-1.24,0-7.61,5.94-7.33,7.36c0.17,0.82,16,1.62,16.84,1.58c0.32-0.01-0.19,0.26,0.08,0.09
		c6.47-3.96,11.5-1.4,11.5-8.99c0-6.94,2.84-11.17,6.71-15.62c5.35-6.13,10.22-11.48,15.1-17.14l-0.63,23.21
		c1.41,0,1.31,0.67,2.11-0.48c0.81-1.16,1.04,0.34,1.26-1.05c1-6.4,2.01,6.16,2.17-0.33c0.16-6.54-0.87-12.86-0.75-19.39
		c0.03-1.67,0.3-7.66-0.95-8.77c-2.06-1.83-5.26-0.1-7.36,1.69c-7.05,5.99-14.12,16.61-19.99,23.77
		c-2.73,3.33-14.77,6.44-14.77,10.54C433.81,572.1,431.92,573.26,429.79,573.26z"/>
	<path class="st4" d="M436.38,435.84l-11.74-0.01c7.3,29.89,21.24,43.7,43.01,43.7l1.66-4.25
		C448.81,475.28,436.38,457.98,436.38,435.84z"/>
	<path class="st13" d="M409.1,610.34L409.1,610.34C409.1,610.35,409.11,610.37,409.1,610.34z"/>
	<path class="st4" d="M440.56,436.34c1.58,0.29-0.2,1.68,1.25,1.68c3.9,0,27.89-0.07,32.52-0.07c0.07,0,0.13,7.07-7.47,7.07
		c-5.36,0-7.33,0-14.86,0c0,3.11,2.12,4.69,4.36,4.69c4.63,0,22.65,0,27.04,0c5.62,0,5.72-4.83,14.48-4.83
		c0-1.85-2.12-3.61-3.64-3.61c2.78,0,9.8-0.03,14.94-0.03c0.48,0,0.98-6.29,0.53-6.48c-6.43-2.67-12.24-12.31-18.62-15.11
		c-1.25-0.55-2.64-0.69-4-0.78c-14.27-1.01-28.8,1.9-41.58,8.34c-1.73,0.87-3.48,1.85-4.65,3.4c-1.17,1.55-1.6,3.81-0.53,5.42
		C440.4,436.14,440.43,436.31,440.56,436.34z"/>
	<path class="st11" d="M479.72,434.05c-2.53,1.92-1.78,2.25-0.33,2.25c0.92,0,3.65-0.01,4.7-0.01c0.07,0,0.19,8.73-12.41,8.73
		c-2.34,0-6.8,0-10.11,0c0,1.7,1.23,3.09,3.16,3.09c4.63,0,8.27,0,12.66,0c8.47,0,11.24-6.58,11.24-12.12
		c0-4.34-0.08-4.24-0.08-9.48c0-0.48,3.19-5.18,2.75-5.37c-6.43-2.67,7.48-0.28,1.1-3.08c-1.25-0.55-2.64-0.69-4-0.78
		c-14.27-1.01-28.8,1.9-41.58,8.34c-1.73,0.87-3.48,1.85-4.65,3.4c-1.17,1.55,36.79,0.74,37.93,2.3
		C480.84,432.31,480.66,433.34,479.72,434.05z"/>
	<path class="st4" d="M441.43,458.18c-2.44-4.53-0.59-8.46,4.04-8.46c2.25,0,4.36-1.59,4.36-4.69h-22.02L441.43,458.18z"/>
	<path class="st11" d="M487.89,440.82c0.35-1.09,1.2-2.39,3.74-2.39c3.39,0,4.76,0,9.53,0c0-1.95-1.25-4.26-4.27-4.26
		c-2.93,0-8.17,0-10.95,0c-0.85,0-1.92,6.47-1.92,9.98L487.89,440.82z"/>
	<path class="st11" d="M425.17,441.98c-0.02,5.51,2.88,10.82,5.69,15.69c0.96,1.67,0.27,3.01,2.14,3.43c0-2.98,5.05,2.33,1.88-3.08
		c-3.94-6.75-0.42-9.93,3.68-9.93c0.7,0,3.65,0.01,4.72,0.01c3.36,0,3.4-3.08,3.39-3.08c-2.84,0-5.45-2.92-5.45-7.03
		c0-0.8,0-1.23,0-1.74c0-0.9,1.57-0.22,2.47-0.32c1.52-0.17,3.04-0.35,4.56-0.52c-0.94-0.58-2.16-0.29-3.26-0.38
		s-3.35,1.98-2.86,0.98c0.14-0.3,0.41-0.51,0.68-0.71c2.54-1.95,5.09-3.9,7.63-5.85c2.73-2.1,5.49-4.2,8.54-5.79
		c2.78-1.44,6.11-2.44,9.01-1.25c1.51,0.62,2.72,1.77,4.04,2.72c2.29,1.65,4.96,2.76,7.75,3.22c1.8,0.29,3.91,0.47,4.88,2.01
		c0.26,0.42,0.41,0.9,0.7,1.3c0.39,0.53-1.44,0.01-0.91,0.41c2.98,2.24-0.5,2.24,3.23,2.24c3.48,0,12.67-0.08,15.65-0.08
		c3.56,0,5.63,3.04,5.36,4.31c1.24-2.45,2.46-4.98,2.81-7.71c0.81-6.35-5.18-12.21-10.26-15.06c-12.94-7.26-28.4-9.65-42.99-7.24
		c-8.69,1.44-23.44,4.47-27.83,13.33c-1.53,3.08-1.54,5.84-2.29,9.05c-0.71,3.04-2.32,5.78-2.79,8.9
		C425.22,440.54,425.17,441.26,425.17,441.98z"/>
	<path class="st3" d="M348.48,499.96c8.12-4.9,18.72-10.87,25.95-11.19c-2.49,7.45,12.13,15.56,6.32,20.69
		c-4.16,3.67-30.77,1.48-34.04,5.8c-3.31,4.38-4.71,10.82-5.67,16.1c-1.21,6.65,1.46,49.08,0.34,55.74
		c-12.56,0-16.75-10.4-16.69-23.49c0-0.71,0.01-24.84,0.01-25.46c0-9.25-2.42-9.39-8.17-12.4c-7.54-3.95-11.52-11.35-11.52-16.57
		C321.61,514.11,335.25,507.94,348.48,499.96z"/>
	<path class="st4" d="M417.87,604.45l-10.89,0c0-7.87-6.04-15.31-15.22-15.31h-2.71c-8.76,0-15.87-7.1-15.87-15.87l66.91,0
		c0,1.02,32.77-35.96,32.57-31.98c-0.2,4.06,3.97,20.37,0.38,30.68c-7.07,20.3-24.24,37.1-24.24,29.54
		c0-6.82-5.68-12.37-13.21-12.37C424.83,589.14,417.87,595.14,417.87,604.45z"/>
	<path class="st5" d="M471.56,499.34c-7-3.72-18.13-10.27-25.9-10.27c0.39,1.17,0.52,3.3,0.22,4.49c-0.32,1.24-0.93,2.4-1.6,3.48
		c-0.72,1.15-1.53,2.24-2.34,3.33c-0.44,0.6-0.83,1.29-1.39,1.78c-0.54,0.48-1.25,0.71-1.93,0.95c-0.14,0.05-0.29,0.11-0.4,0.22
		c-0.1,0.11-0.16,0.26-0.14,0.41c0.02,0.18,0.13,0.33,0.2,0.49c0.05,0.12,0.07,0.25,0.13,0.37c0.09,0.18,0.24,0.32,0.35,0.48
		c0.09,0.14,0.14,0.3,0.17,0.47c0.02,0.14-0.02,0.27-0.05,0.41c-0.04,0.28-0.06,0.57-0.04,0.85c0.04,0.58,0.24,1.14,0.55,1.64
		c0.24,0.37,0.54,0.7,0.88,0.99c4.16,3.67,30.77,1.48,34.04,5.8c3.31,4.38,4.71,10.82,5.67,16.1c1.21,6.65,0.27,29.74,1.4,36.4
		c12.55-3.56,16.05-8.58,16.05-11.8c0-0.71-0.01-21.37-0.01-21.99c0-9.25,3.46-5.23,9.06-9.49c8.45-6.43,11.75-14.51,11.75-33.97
		C509.21,510.71,486.58,507.31,471.56,499.34z"/>
	<path class="st3" d="M353.1,522.91c-8.37,0-15.16,6.79-15.16,15.16l0,18.05c0,8.37,6.79,18.32,15.16,18.32L353.1,522.91z"/>
	<path class="st3" d="M469.03,522.81c8.37,0,15.16,6.79,15.16,15.16l-6.26,18.92c0,8.37-4.4,17.82-8.91,20.34L469.03,522.81z"/>
	<path class="st14" d="M350.28,535.48c10.93,12.34,17.55,19.94,22.54,25.73c5.73,6.63,10.85,8.58,20.89,8.58l36.17,0
		c7.56,0,11.85-2.24,18.03-8.98c5.49-5.98,11.21-12.12,23.19-25.32L350.28,535.48z"/>
	<path class="st15" d="M350.37,535.57c20.82,22.63,25.64,22.84,37.74,22.84l45.56,0c9.12,0,18.08-1.76,37.29-22.78L350.37,535.57z"
		/>
	<path d="M350.81,535.94c25.04,19.01,27.04,22.47,39.15,22.47h41.08c12.03,0,15.97-4.48,39.69-22.56L350.81,535.94z"/>
	<path class="st3" d="M465.26,478.47c-4.68-0.52-9.23-1.83-13.69-3.33c-3.54-1.19-7.07-2.53-10.2-4.57
		c-6.59-4.28-10.92-11.3-14.1-18.48c-1.66-3.75-3.09-7.69-3.31-11.79c-0.24-4.41,0.93-8.8,0.92-13.22c-0.01-1.45-0.2-3.04-1.25-4.04
		c-0.66-0.63-1.56-0.92-2.43-1.17c-0.66-0.19-2.61-0.58-5.06-0.94c-1.72-0.63-4.32-0.78-7.07-0.68c-2.75-0.1-5.35,0.05-7.07,0.68
		c-2.46,0.36-4.4,0.75-5.06,0.94c-0.88,0.25-1.78,0.55-2.44,1.17c-1.05,1-1.25,2.59-1.25,4.04c-0.02,4.42,1.15,8.8,0.91,13.22
		c-0.22,4.1-1.65,8.04-3.31,11.79c-3.18,7.19-7.51,14.2-14.1,18.48c-3.13,2.04-6.66,3.37-10.2,4.57c-4.46,1.51-9.02,2.81-13.69,3.33
		c-13.9,1.54-30.81-4.73-39.81-15.43c3.73,8.86,14.22,18.37,27.28,18.37c9.93,0,14.14,0.05,22.38,0.05
		c10.62,0,20.08-7.52,26.03-13.23c5.78-5.55,4.81-11.39,7.34-18.94c1.28-3.82,2.43-7.84,3.04-11.83c0.53-3.45,0.21,2.22,0.96-1.59
		c1.44-7.34,4.29-9.23,9.25-9.23c6.36,0,9.29,3.54,9.29,9.27c0,4.04,2.16,9.55,3.44,13.38c2.53,7.54,6.4,14.66,12.18,20.21
		c5.95,5.71,12.92,15.86,12.92,14.04c0-1.38,0.81-2.12,2.22-2.1c8.26,0.09,19.79,0.38,26.83,0.38c10.15,0,23.95-4.87,31.46-22.73
		C498.64,469.79,479.16,480.01,465.26,478.47z"/>
	<path class="st8" d="M499.84,563.16c0.01-0.03,0.02-0.07,0.02-0.1c-0.02,0-0.03,0-0.05,0
		C499.83,563.09,499.83,563.13,499.84,563.16z"/>
	<g>
		<path class="st16" d="M408.02,429.02c-2.28,0-3.53,2.09-3.53,3.95c0,11.68,0.04,18.45,0.04,25.69c0,8.57-5.01,12.72-5.01,18.88
			c0,1.58-0.1,6.59-0.1,9.53c0,2.27,1.6,4.79,4.33,4.79s4.09-2.42,4.09-4.79c0-2.78,0.03-16.82,0.03-28.46
			c0-8.1,3.86-9.03,3.86-16.83c0-1.2,0-7.69,0-8.91C411.73,430.47,410.38,429.02,408.02,429.02z"/>
		<path class="st16" d="M306.04,463.27c6.06,15.85,19.82,22.38,33.34,22.38c6.32,0,12.62,0,18.18,0c0,0-9.22,10.26-30.46,10.26
			c-11.76,0-21.05-8.56-21.05-21.23C306.05,470.69,306.04,463.27,306.04,463.27z"/>
		<path class="st16" d="M467.54,485.38c0.53,0,1.06-0.01,1.59-0.01c12.36,0,24.24-1.64,33.91-7.91c0,9.28-6.26,16.33-17.07,16.33
			C468.52,493.79,467.54,485.38,467.54,485.38z"/>
	</g>
	<path d="M494.89,523.03c1.41-2.38,0.62-5.46-1.76-6.87l-31.54-18.81c-2.38-1.41-5.46-0.62-6.87,1.76L494.89,523.03z"/>
	<path d="M327,523.03c-1.41-2.38-0.62-5.46,1.76-6.87l31.54-18.81c2.38-1.41,5.46-0.62,6.87,1.76L327,523.03z"/>
	<path class="st9" d="M415.69,506.79c-1.02,0.13-2,0.5-2.98,0.84l3.31-0.87C415.9,506.76,415.8,506.77,415.69,506.79z"/>
	<path class="st9" d="M417.92,506.25l4.51-1.19C420.34,505.06,419.53,505.55,417.92,506.25z"/>
	<path class="st9" d="M417.92,506.25l-1.9,0.5c0.43-0.04,0.87-0.08,1.27-0.24C417.51,506.42,417.72,506.34,417.92,506.25z"/>
	<path class="st9" d="M474.76,509.73l-35.05-5.13c-3.4-1.22-8.6,0.34-12,0.9c-4.87,0.81-9.63,1.67-14.6,1.56
		c-5.8-0.12-11.49-0.81-17.21-1.36c-4.51-0.43-8.96-1.77-13.51-1.11c-0.01,0-35.05,5.13-35.05,5.13
		c-13.11,1.2-15.05,12.33-15.05,19.16l8.68,4.89c0,0,27.97-5.5,56.42-6.41c3.29-0.11,10.31,0.93,13.45,0.93
		c2.76,0,9.53-1.03,12.67-0.92c25.55,0.91,57.44,6.16,57.44,6.16l8.84-4.64C489.8,522.06,487.86,510.93,474.76,509.73z"/>
	<path class="st8" d="M347.18,523.7c-1.1-7.54,4.11-14.54,11.65-15.64l13.31-1.97c7.53-1.1,14.53,4.12,15.63,11.66L347.18,523.7z"/>
	<path class="st17" d="M367.06,541.33c1.91,1.16,4.66,0.68,6.86,1.1c4.88,0.93,9.81,1.48,14.75,2.03
		c11.55,1.29,23.15,2.58,34.76,2.05c5.6-0.25,11.18-0.93,16.67-2.02c3.08-0.61,6.21-1.39,8.85-3.1c0.92-0.6,1.46-0.44,2.35-1.05
		c0.83-0.56,2.14-0.87,2.9-1.54c0.79-0.7-0.68-3.01-0.68-4.06c0-1.05-2.15,0.56-1.73-0.4c-7.04,0.36-14.03-0.03-21.12,0.8
		c-7.27,0.85-10.96-0.35-18.31-0.53c-7.91-0.19-15.05-0.7-22.96-0.37c-5.62,0.23-11.86,0.25-17.48,0.51
		c-1.58,0.07-6.39-1.12-7.37,0.18C363.23,536.69,365.82,540.57,367.06,541.33z"/>
	<g>
		<path class="st18" d="M389.59,556.62c0-1.58-1.28-2.86-2.86-2.86h-1.69c-1.58,0-2.86,1.28-2.86,2.86H389.59z"/>
		<path class="st18" d="M399.27,556.62c0-1.58-1.28-2.86-2.86-2.86h-2.95c-1.58,0-2.86,1.28-2.86,2.86H399.27z"/>
		<path class="st18" d="M410.2,556.62c0-1.58-1.28-2.86-2.86-2.86h-4.21c-1.58,0-2.86,1.28-2.86,2.86H410.2z"/>
		<path class="st18" d="M421.14,556.62c0-1.58-1.28-2.86-2.86-2.86h-4.21c-1.58,0-2.86,1.28-2.86,2.86H421.14z"/>
		<path class="st18" d="M430.81,556.62c0-1.58-1.28-2.86-2.86-2.86H425c-1.58,0-2.86,1.28-2.86,2.86H430.81z"/>
		<path class="st18" d="M439.23,556.62c0-1.58-1.28-2.86-2.86-2.86h-1.69c-1.58,0-2.86,1.28-2.86,2.86H439.23z"/>
	</g>
	<path class="st9" d="M347.45,514.88c-8.37,0-15.16,5.61-15.16,13.99v42.56c0,8.37,6.79,15.16,15.16,15.16V514.88z"/>
	<path class="st3" d="M398.05,421.74c2.7,0.59,4.42,3.26,3.83,5.96l-9.47,44.1c-0.59,2.7-3.26,4.42-5.96,3.83L398.05,421.74z"/>
	<path class="st16" d="M443.06,359.33h-67.06c-11.93,0-21.7-9.76-21.7-21.7v-6.74c0-11.93,9.76-21.7,21.7-21.7h67.06
		c11.93,0,21.7,9.76,21.7,21.7v6.74C464.75,349.57,454.99,359.33,443.06,359.33z"/>
	<path class="st16" d="M451.3,391.23h-83.55c-7.72,0-14.04-6.32-14.04-14.04v-4.36c0-7.72,6.32-14.04,14.04-14.04h83.55
		c7.72,0,14.04,6.32,14.04,14.04v4.36C465.34,384.91,459.03,391.23,451.3,391.23z"/>
	<path class="st3" d="M430.55,419.55h-40.72c-2.22,0-4.04-1.82-4.04-4.04v-1.25c0-2.22,1.82-4.04,4.04-4.04h40.72
		c2.22,0,4.04,1.82,4.04,4.04v1.25C434.59,417.73,432.77,419.55,430.55,419.55z"/>
	<path class="st4" d="M464.18,292.26c0,4.97-4.07,9.04-9.04,9.04h-91.23c-4.97,0-9.04-4.07-9.04-9.04H464.18z"/>
	<g>
		<path class="st9" d="M386.48,413.89c0-9.36-7.59-16.95-16.95-16.95h-18.16c-9.36,0,7.58,2.83,7.58,12.2l18.61,4.76H386.48z"/>
		<path class="st9" d="M368.87,408.08c0-6.16-4.99-11.15-11.15-11.15h-30.6c-6.16,0-11.15,4.99-11.15,11.15H368.87z"/>
		<path class="st9" d="M390.07,415.83c1.82-1.06,2.44-3.41,1.37-5.23l-7.5-12.85c-1.06-1.82-3.41-2.44-5.23-1.37L390.07,415.83z"/>
		<path class="st9" d="M369.57,410.62c-1.33-0.44-2.74-0.95-3.55-2.09s-0.58-3.1,0.76-3.51c0.47-0.15,0.99-0.08,1.48-0.01
			c3.73,0.54,7.45,1.09,11.18,1.63c0.61,0.09,1.37,0.42,1.31,1.03H388c-0.01-0.15-0.01-0.31-0.02-0.46c0.11,2.26,2.4,4.33,2.6,6.68
			c0.21,2.5-1.87,2.96-3.94,2.41C380.88,414.8,375.22,412.51,369.57,410.62z"/>
	</g>
	<g>
		<path class="st9" d="M434,413.89c0-9.36,7.59-16.95,16.95-16.95h18.16c9.36,0-7.58,2.83-7.58,12.2l-18.61,4.76H434z"/>
		<path class="st9" d="M451.61,408.08c0-6.16,4.99-11.15,11.15-11.15h30.6c6.16,0,11.15,4.99,11.15,11.15H451.61z"/>
		<path class="st9" d="M430.41,415.83c-1.82-1.06-2.44-3.41-1.37-5.23l7.5-12.85c1.06-1.82,3.41-2.44,5.23-1.37L430.41,415.83z"/>
		<path class="st9" d="M450.9,410.62c1.33-0.44,2.74-0.95,3.55-2.09s0.58-3.1-0.76-3.51c-0.47-0.15-0.99-0.08-1.48-0.01
			c-3.73,0.54-7.45,1.09-11.18,1.63c-0.61,0.09-1.37,0.42-1.31,1.03h-7.25c0.01-0.15,0.01-0.31,0.02-0.46
			c-0.11,2.26-2.4,4.33-2.6,6.68c-0.21,2.5,1.87,2.96,3.94,2.41C439.6,414.8,445.25,412.51,450.9,410.62z"/>
	</g>
	<g>
		<g>
			<path class="st8" d="M336.18,284.02h32.48c4.97,0,9.04-4.07,9.04-9.04v-2.81c0-4.97-4.07-9.04-9.04-9.04l1.27-13.93
				c-18.54,1.69-42.79,18-42.79,22.98v2.81C327.14,279.95,331.21,284.02,336.18,284.02z"/>
			<path class="st4" d="M350.27,284.76c0-2.56-2.09-4.65-4.65-4.65h-4.88c-2.38,0-4.05,1.36-4.05,3.92L350.27,284.76z"/>
			<path class="st8" d="M346.74,286.37h18.78c3.36,0,6.1-2.75,6.1-6.1v-1.89c0-3.36-2.75-6.1-6.1-6.1h-18.78
				c-3.36,0-6.1,2.75-6.1,6.1v1.89C340.64,283.62,343.38,286.37,346.74,286.37z"/>
			<path class="st4" d="M382.35,286.87c0-3.27-2.68-5.95-5.95-5.95h-9.34c-3.27,0-5.95,2.68-5.95,5.95H382.35z"/>
		</g>
		<g>
			<path class="st8" d="M482.87,284.02h-32.48c-4.97,0-9.04-4.07-9.04-9.04c0,0,0-2.81,0-2.81c0-10.42,12.52-9.53,19.69-9.14
				c9.95,0.54,19.81,2.73,29.04,6.47c1.31,0.53,1.83,1.24,1.83,2.67c0,0,0,2.81,0,2.81C491.91,279.95,487.84,284.02,482.87,284.02z"
				/>
			<path class="st4" d="M468.78,284.76c0-2.56,2.09-4.65,4.65-4.65h4.88c2.38,0,4.05,1.36,4.05,3.92L468.78,284.76z"/>
			<path class="st8" d="M472.31,286.37h-18.78c-3.36,0-6.1-2.75-6.1-6.1v-1.89c0-3.36,2.75-6.1,6.1-6.1h18.78
				c3.36,0,6.1,2.75,6.1,6.1v1.89C478.41,283.62,475.67,286.37,472.31,286.37z"/>
			<path class="st4" d="M436.7,286.87c0-3.27,2.68-5.95,5.95-5.95h9.34c3.27,0,5.95,2.68,5.95,5.95H436.7z"/>
		</g>
	</g>
	<path class="st8" d="M443.56,294.05h-68.08c-4.97,0-9.04-4.07-9.04-9.04v-2.81c0-4.97,4.07-9.04,9.04-9.04h68.08
		c4.97,0,9.04,4.07,9.04,9.04v2.81C452.61,289.98,448.54,294.05,443.56,294.05z"/>
	<g>
		<path class="st19" d="M429.73,431.62c0-11.79,9.58-21.35,21.39-21.35h24.58c11.81,0,21.39,9.56,21.39,21.35h-11.18l-4.34-3.35
			l-6.25,3.35H429.73z"/>
		<path class="st19" d="M428.79,434.98c0-13.1,10.62-23.72,23.72-23.72h10.15c13.1,0-13.65,10.62-13.65,23.72h-10.46
			c-5.95,0-9.66,4.45-8.29,10.72c1.12,5.12,0.64,6.43,0.64,6.43l-4.83-14.34L428.79,434.98z"/>
	</g>
	<g>
		<defs>
			<path id="SVGID_1_" d="M481.36,429.73c-3.6,5.82-13.26,6.63-15.9,6.63c-4.86,0-11.84,0-16.02,0c-1.37,0,0.09-0.11-1.1-0.79
				c-1.18-0.68-2.06-2.1-1.66-3.41c0.22-0.73,0.78-1.29,1.32-1.83c1.2-1.19,2.4-2.38,3.6-3.57c0.98-0.97,1.96-1.95,3.11-2.71
				c1.34-0.88,2.87-1.45,4.43-1.84c5.72-1.45,12.32-0.68,17.42,2.38C480.81,427.13,482.02,428.66,481.36,429.73z"/>
		</defs>
		<use xlink:href="#SVGID_1_"  style="overflow:visible;fill:#CEC2BD;"/>
		<clipPath id="SVGID_2_">
			<use xlink:href="#SVGID_1_"  style="overflow:visible;"/>
		</clipPath>
		<path class="st20" d="M477.19,429.61c1.25,1.09,1.74,2.83-0.04,3.92c-2.82,1.72-7.65,4.94-12.07,5.15
			c-3.54,0.18-9.69,0.9-12.43-1.98c-0.37-0.39-1.29-1.45-1.57-1.78c-1.09-1.31-0.81-2.34,0.17-3.13c0.91-0.74,1.27-1.05,2.13-1.74
			c3.1-2.5,5.03-5.88,10.63-6.15c2.95-0.15,4.77-1.04,6.39,0.8c1.43,1.62,2.2,0.85,3.25,1.82
			C474.72,427.49,476.25,428.79,477.19,429.61z"/>
		<circle class="st21" cx="464.16" cy="428.9" r="9.82"/>
		<path class="st22" d="M471.86,429.73c0,4.33-3.45,7.02-7.7,7.02c-4.25,0-7.7-2.69-7.7-7.02H471.86z"/>
		<circle class="st23" cx="464.16" cy="428.9" r="3.78"/>
		<circle class="st24" cx="461.6" cy="425.27" r="2.32"/>
	</g>
	<path d="M492.5,427.99c-1.14,1.39-3.79,1.52-5.69-0.13c-3.05-2.64-3.75-3.2-6.43-5.32c-3.83-3.03-7.28-4.8-14.69-4.8
		c-0.61,0-2.26,0-4.28,0c-2.91,0-5.81,1.64-8.6,3.79c-5.97,4.61-9.73,7.33-15.8,12.26c-1.9-3.16,0.28-5.46,1.77-6.57
		c2.53-1.9,8.61-6.64,10.11-7.71c1.26-0.9,5.69-4.55,9.61-4.55c1.97,0,8.61,0,9.53,0c7.9,0,12.16,2.95,15.42,5.63
		C486.41,423.05,488.5,424.75,492.5,427.99z"/>
	<path class="st11" d="M479.72,434.06c-2.18,1.73-7.15,3.91-12.75,3.91c-1.07,0-2.98,0-4.38,0c0,0,0.06,1.84,1.96,1.84
		c1.44,0,3.13,0,3.53,0c3.69,0,7.8-1.1,10.93-3.03C480.52,435.83,479.73,434.05,479.72,434.06z"/>
	<path class="st25" d="M449.62,436.35c-3.35,0-4.49-0.18-6.38,1.05c-0.12,0.08-3.04-0.56-3.16-0.64c-0.16-0.1-0.23-0.3-0.25-0.49
		c-0.07-0.69-0.06-0.83,0.53-1.18c0.59-0.36,1.29-0.5,1.95-0.71c2.2-0.68,4.16-2.1,5.49-3.98c0.26-0.37,0.49-0.59,0.9-0.46
		C447.74,432.09,447.93,434.53,449.62,436.35z"/>
	<path d="M483.97,432.05c-2.3-1.97-4.5-3.58-6.74-5.62c-2.29-2.08-5.91-3.97-11.42-3.97c-1.08,0-1.93,0-3.6,0
		c-2.67,0-5.34,1.62-7.41,3.32c-2.22,1.81-9.11,7.29-11.26,9.03c-0.69,0.55-1.24,1.41-0.26,2.6c-2.8,2.04-5.28-1.44-2.97-3.18
		c1.91-1.43,9.39-7.49,13.09-10.35c2.78-2.16,5.47-3.94,8.98-3.94c0.67,0,2.21-0.01,3.24-0.01c7.19,0,10.5,2.18,14.12,5.02
		c2.69,2.12,6.72,5.35,8.44,6.82C487.08,433.12,485.33,433.21,483.97,432.05z"/>
	<path class="st4" d="M309.27,433.84c-5,0-1.89-9.82-1.44-10c6.43-2.67,14.5-1.37,20.88-4.17c1.25-0.55,2.64-0.69,4-0.78
		c14.27-1.01,28.8,1.9,41.58,8.34c1.73,0.87,3.48,1.85,4.65,3.4s5.31,17.66-17.28,17.66c-2.74,0-5.41-3.26-5.28-3.26
		c6.21,0.13,6.22-7,6.12-7c-5.73,0-25.77-0.07-30.4-0.07c-0.07,0-0.01,7.09,5.25,7.09c0,0-5.42,0-6.72,0
		C320.83,445.04,318.91,433.84,309.27,433.84z"/>
	<path class="st11" d="M331.99,429.99c0-4.34-0.75,1.76-0.75-3.48c0-0.48-3.19-5.18-2.75-5.37c6.43-2.67-7.48-0.28-1.1-3.08
		c1.25-0.55,2.64-0.69,4-0.78c14.27-1.01,28.8,1.9,41.58,8.34c1.73,0.87,3.48,1.85,4.65,3.4c1.17,1.55-36.79,0.74-37.93,2.3
		c-0.73,0.99-0.55,2.03,0.39,2.74c2.53,1.92,1.94,3.45,0.7,2.69c-2.19-1.33-4.28-3.19-5.78-5.21L331.99,429.99z"/>
	<path class="st4" d="M376.9,434.11c1.19-0.1,2.23-0.29,2.53-0.39c1-0.32,1.96-0.78,2.94-1.16c2.27-0.87,4.71-1.32,7.14-1.3
		c3.46,0.02,4.56,5.83,4.96,8.54c0.11,0.73,0.16,1.46,0.16,2.18c0.02,5.51-2.88,10.82-5.69,15.69c-0.96,1.67,0,2.17-1.87,2.58
		c0-2.98-6.35,2.94-4.01-0.69c5.03-7.83,1.14-13.44-4.8-12.54c-2.99,0.45-6.16,2.68-13.88,2.68c-2.8,0-13.98,0-15.25,0
		c-5.33,0-5.71-4.68-5.71-4.68c3.82,0,19.81-0.01,22.11-0.01c2.93,0,6.81-4.4,6.81-7.17c0-0.8,0-2.78,0-4.85
		C372.35,434.22,374.85,434.29,376.9,434.11z"/>
	<path class="st11" d="M377,435.31c-2.54-1.95-5.09-3.9-7.63-5.85c-2.73-2.1-5.49-4.2-8.54-5.79c-2.78-1.44-6.11-2.44-9.01-1.25
		c-1.51,0.62-2.72,1.77-4.04,2.72c-2.29,1.65-4.96,2.76-7.75,3.22c-1.79,0.29-3.91,0.47-4.88,2.01c-0.26,0.42-0.41,0.9-0.7,1.3
		c-0.39,0.53,3.95-1.76,3.41-1.36c-2.98,2.24,4.11,4.01,0.38,4.01c-3.48,0-11.87,0.02-14.85,0.02c-6.61,0-14.73-5.95-14.73-12.91
		c-1.24-2.45-2.51,1.78-2.86-0.94c-0.81-6.35,7.68-1.85,12.76-4.7c12.94-7.26,28.4-9.65,42.99-7.24
		c8.69,1.44,23.44,4.47,27.83,13.33c1.53,3.08,1.54,5.84,2.29,9.05c0.71,3.04,2.32,5.78,2.79,8.9c0.11,0.73,0.16,1.46,0.16,2.18
		c0.02,5.51-2.88,10.82-5.69,15.69c-0.96,1.67,0.21,1.15-1.67,1.56c0-2.98-1.36-4.53,0-8.62c2.44-7.33-4.75-10.58-9.49-6.86
		c-3.58,2.81-8.27,4.36-15.08,4.36c-2.8,0-9.74,0-11,0c-3.79,0-3.59-3.09-3.59-3.09c3.82,0,11.04-0.01,13.34-0.01
		c6.4,0,10.9-4.57,10.9-9.07c0-0.8,0-0.89,0-2.95C372.35,432.99,377.27,435.51,377,435.31z"/>
	<g>
		<path class="st19" d="M391.87,431.78c0-11.68-9.47-21.15-21.15-21.15l-26.19-0.41c-11.68,0-21.7,9.89-21.7,21.57h11.56l4.07-3.78
			l6.11,3.78H391.87z"/>
		<path class="st19" d="M391.35,434.98c0-13.22-10.71-23.93-23.93-23.93h-10.24c-13.22,0,13.77,10.71,13.77,23.93h9.19
			c5.11,0,9.56,3.4,8.83,8.82L391.35,434.98z"/>
	</g>
	<g>
		<defs>
			<path id="SVGID_3_" d="M338.44,429.73c3.6,5.82,13.26,6.63,15.9,6.63c4.86,0,11.84,0,16.02,0c1.37,0-0.09-0.11,1.1-0.79
				c1.18-0.68,2.06-2.1,1.66-3.41c-0.22-0.73-0.78-1.29-1.32-1.83c-1.2-1.19-2.4-2.38-3.6-3.57c-0.98-0.97-1.96-1.95-3.11-2.71
				c-1.34-0.88-2.87-1.45-4.43-1.84c-5.72-1.45-12.32-0.68-17.42,2.38C339,427.13,337.78,428.66,338.44,429.73z"/>
		</defs>
		<use xlink:href="#SVGID_3_"  style="overflow:visible;fill:#CEC2BD;"/>
		<clipPath id="SVGID_4_">
			<use xlink:href="#SVGID_3_"  style="overflow:visible;"/>
		</clipPath>
		<path class="st26" d="M342.61,429.61c-1.25,1.09-1.74,2.83,0.04,3.92c2.82,1.72,7.65,4.94,12.07,5.15
			c3.54,0.18,9.69,0.9,12.43-1.98c0.37-0.39,1.29-1.45,1.57-1.78c1.09-1.31,0.81-2.34-0.17-3.13c-0.91-0.74-1.27-1.05-2.13-1.74
			c-3.1-2.5-5.03-5.88-10.63-6.15c-2.95-0.15-4.77-1.04-6.39,0.8c-1.43,1.62-2.2,0.85-3.25,1.82
			C345.09,427.49,343.55,428.79,342.61,429.61z"/>
		<circle class="st27" cx="355.64" cy="428.9" r="9.82"/>
		<path class="st28" d="M347.94,429.73c0,4.33,3.45,7.02,7.7,7.02s7.7-2.69,7.7-7.02H347.94z"/>
		<circle class="st29" cx="355.64" cy="428.9" r="3.78"/>
		<circle class="st30" cx="353.08" cy="425.27" r="2.32"/>
	</g>
	<path d="M327.63,428.19c1.14,1.39,3.35,1.26,5.28-0.34c1.36-1.13,3.11-2.51,4.86-3.87c6.82-5.29,12.33-6.23,19.33-6.23
		c0.58,0-0.72,0,1.31,0c2.91,0,5.81,1.64,8.6,3.79c5.97,4.61,9.73,7.33,15.8,12.26c1.91-2.85,0.98-5.62-1.49-7.41
		c-2.56-1.85-9.02-6.6-10.49-7.72c-2.76-2.09-4.74-3.7-9.04-3.7c-2.24,0-4.93,0-6.11,0c-7.1,0-13.37,1.33-20.63,7.22
		C332.05,424.61,331.5,425.06,327.63,428.19z"/>
	<path class="st11" d="M340.08,434.06c2.18,1.73,7.15,3.91,12.75,3.91c1.07,0,2.98,0,4.38,0c0,0-0.06,1.84-1.96,1.84
		c-1.44,0-3.13,0-3.53,0c-3.69,0-7.8-1.1-10.93-3.03C339.28,435.83,340.07,434.05,340.08,434.06z"/>
	<path class="st25" d="M370.18,436.35c3.35,0,4.49-0.18,6.38,1.05c0.12,0.08,3.04-0.56,3.16-0.64c0.16-0.1,0.23-0.3,0.25-0.49
		c0.07-0.69,0.06-0.83-0.53-1.18c-0.59-0.36-1.29-0.5-1.95-0.71c-2.2-0.68-4.16-2.1-5.49-3.98c-0.26-0.37-0.49-0.59-0.9-0.46
		C372.07,432.09,371.88,434.53,370.18,436.35z"/>
	<path d="M335.81,432.05c2.35-1.98,2.62-2.23,4.99-4.12c4.34-3.47,9.74-5.47,15.15-5.47c2.29,0-0.01,0,1.66,0
		c2.67,0,5.34,1.62,7.41,3.32c2.22,1.81,9.11,7.29,11.26,9.03c0.69,0.55,1.24,1.41,0.26,2.6c2.8,2.04,5.28-1.44,2.97-3.18
		c-1.91-1.43-9.39-7.49-13.09-10.35c-2.78-2.16-5.5-3.98-9.01-3.98c-0.95,0-0.56,0-1.47,0c-5.83,0-11.36,1.62-17.63,6.49
		c-2.7,2.1-4.98,3.91-6.69,5.38C332.7,433.12,334.44,433.2,335.81,432.05z"/>
	<path class="st31" d="M380.58,535.71l30.14-1.62l30.14,1.62l29.62-3.09l-45.85-2.24c-2.92,0-10.61,1.32-13.92,1.32
		c-3.38,0-10.86-1.32-13.92-1.32l-45.07,2.24L380.58,535.71z"/>
	<path class="st32" d="M386.55,561.46c0,2.25,1.82,4.07,4.07,4.07l33.48,0c2.25,0,4.07-1.82,4.07-4.07L386.55,561.46z"/>
	<path class="st8" d="M377.55,573.27c0,7.33,5.94,13.26,13.26,13.26l40.06,0c7.33,0,13.26-5.94,13.26-13.26L377.55,573.27z"/>
	<g>
		<path class="st9" d="M414.4,629.99c-3.34-1.1,1.39-24.35-2-25.29c-3.9-1.08-14.12-0.74-16.99,2.12c-5.2,5.2-8.92,2.61-22.99-7.04
			c-7.91-5.42-23.87-29.02-29.49-36.81c-2.41-3.35-5.68,4.75-7.48,1.04c-1.69-3.48-8.32,4.56-10.72,1.69
			c-3.07-3.67-9.66-12.09-12.52-15.94c-3.16-4.26-11.53-7.23-13.79-12.03c-5.57-11.84-0.76-9.83-0.96-22.37
			c-4.7-6.95-7.27-15.26-7.27-23.71c0-8.37,0-16.74,0-25.11c0-8.2,0-37.39,0-45.59c0-1.61-0.36-2.21-0.43-2.4l-2.93,0.52v74.82
			c0,33.91,7.99,74.7,33.6,100.32c6.23,6.23,13.81,14.03,17.26,17.48c19.82,19.82,45.21,26.98,66.18,26.98
			c6.98,0,8.64,0.04,12.3,0.04c2.61,0,6.1-1.74,6.61-5.06C423.44,629.48,417.38,630.97,414.4,629.99z"/>
	</g>
	<path class="st3" d="M434.25,461.51l-10.53-30.41l-1.37-7.52l-4.1-1.03l0.34,5.13c0,0,0,14.04,0,18.48
		c0,6.53,1.88,13.35,4.78,20.61c2.29,5.75,4.67,9.62,4.67,14.13c0,1.03,0.03,2.45,0.03,3.69c0,3.53-0.99,5.8-3.85,8.66l10.79-0.03
		v-16.97c4.29,0,7.8,2.25,7.8,6.52s0,6.48,0,6.48l4.07-0.1v-14.59L434.25,461.51z"/>
	<path d="M446.88,487.24c0-4.51-4.07-4.31-4.07-4.31c0,5.3-1.14,10.15-5.54,10.15c-4.7,0-3.63,0-5.69,0c-2.06,0-3.53,0.59-5.59,2.65
		c-2.06,2.06-7.2,7.2-8.67,8.67c-1.45,1.45-3.37,3.38-6.23,3.37c-0.36,0-0.64-0.01-0.99,0c-0.35,0-0.63,0-0.99,0
		c-2.87,0.01-4.79-1.93-6.23-3.37c-1.47-1.47-6.62-6.62-8.67-8.67c-2.06-2.06-3.53-2.65-5.59-2.65c-2.06,0-0.98,0-5.69,0
		c-4.41,0-6.23-4.84-6.23-10.15c0,0-3.35,0.21-3.38,3.89c-0.01,0.81-0.02,5.3-0.02,6.81c0,7.05,3.92,11.63,10.73,11.63
		c2.06,0,4.24,0,6,0c2.8,0,4.73,0.61,6.99,2.87c1.76,1.76,2.7,2.7,3.84,3.84c3.52,3.52,5.21,4.76,7.85,4.76c1.47,0,3.62,0,5.09,0
		c2.64,0,4.33-1.23,7.85-4.76c1.13-1.13,2.07-2.07,3.84-3.84c2.26-2.26,4.19-2.87,6.99-2.87c1.76,0,3.18,0,5.24,0
		c4.75,0,9.2-4.46,9.2-10.99C446.9,492.76,446.88,488.04,446.88,487.24z"/>
	<path class="st4" d="M376.7,482.99c0,3.89,2.45,7.48,6.84,7.48c4.28,0,7.32,0,9.19,0s3.21,0.53,5.08,2.41
		c1.87,1.87,6.55,6.55,7.88,7.88c1.34,1.34,2.46,3.07,5.13,3.07c2.67,0,2.05,0,3.66,0c1.6,0,1.6,6.95-1.87,6.95
		c-1.38,0-2.33,0-3.67,0c-2.4,0-3.97-1.12-7.17-4.32c-1.03-1.03-1.88-1.88-3.49-3.49c-2.06-2.06-3.81-2.61-6.35-2.61
		c-1.6,0-4.54,0-6.41,0c-3.74,0-8.82-2.14-8.82-7.48C376.69,489.14,376.7,482.99,376.7,482.99z"/>
	<path class="st4" d="M397.8,492.88c-1.87-1.87-5.41-5.51-5.41-12.01c0,0-3.77,0.65-3.77,5.33c0,3.9,0,7.28,0,7.28L397.8,492.88z"/>
	<path class="st5" d="M410.93,503.84c2.67,0,4.44-1.74,5.78-3.07s6.01-6.01,7.88-7.88c1.87-1.87,3.21-2.41,5.08-2.41
		c1.87,0,1.85,0,6.12,0c4,0,7.03-2.74,7.03-7.56c0,0,0.12,7.45,0.12,8.83c0,5.94-2.31,8.62-6.05,8.62c-1.87,0-4.81,0-6.41,0
		c-2.55,0-4.29,0.55-6.35,2.61c-1.6,1.6-2.46,2.46-3.49,3.49c-3.2,3.2-4.73,4.32-7.13,4.32c-1.34,0-3.13,0-4.51,0
		c-2.81,0-4.52-1.78-6.1-3.22c0,0,2.99,1.96,5.72,0.26C411.16,506.24,410.93,503.84,410.93,503.84z"/>
	<g>
		<path class="st4" d="M305.44,417.87c-2.31,0.64-5.81,1.71-8.41,1.75h-8.82c-1.02,0.41,1.93,5.03,2.69,7.6h6.21
			c2.79,0,4.68,1.28,5.63,2.86c0.94,1.56,1.11,4.77,1.45,6.55L305.44,417.87z"/>
	</g>
	<g>
		<path class="st8" d="M297.88,530.85l0.84-15.48c-4.7-6.95-7.27-15.26-7.27-23.71c0-8.37,0-16.74,0-25.11c0-8.2,0-37.39,0-45.59
			c0-1.61-1.62-2.21-1.69-2.4l-2.93,0.52v74.82c0,10.28,0.9,22.58,2,28.9c1.63,9.35,4.47,15.31,10.12,21.21L297.88,530.85z"/>
	</g>
	<path class="st33" d="M408.6,551.03c0,2.52,2.05,4.57,4.57,4.57l5.73,0c3.25,0,5.57-2.97,5.57-5.73c0-1.8,0-3.91,0-5.96
		c0-2.76-1.99-6.67-6.01-6.67c-5.18,0-9.81,8.11-9.81,11.8C408.64,549.93,408.6,550.28,408.6,551.03z"/>
	<path class="st33" d="M424.37,547.73c0,2.37,1.86,6.43,4.89,6.43l1.93,0c2.35,0,4.63-2.49,4.63-4.48c0-1.3,0-3.61,0-5.08
		c0-1.99-1.01-8.18-3.91-8.18c-3.74,0-7.51,7.26-7.51,9.93C424.4,546.99,424.37,547.19,424.37,547.73z"/>
	<path class="st34" d="M435.78,547.98c0,2.37,0.87,4.11,3.35,4.11h0.94c1.92,0,5.13-2.21,5.13-6.29c0-1.3,0-2.94,0-4.41
		c0-1.99-0.83-5.29-3.2-5.29c-3.06,0-6.19,6.81-6.19,9.48C435.8,546.21,435.78,547.44,435.78,547.98z"/>
	<path class="st33" d="M409.72,551.03c0,2.52-2.05,4.57-4.57,4.57l-5.73,0c-3.25,0-5.57-2.97-5.57-5.73c0-1.8,0-3.91,0-5.96
		c0-2.76,1.99-6.67,6.01-6.67c6.12,0,9.81,8.11,9.81,11.8C409.68,549.93,409.72,550.28,409.72,551.03z"/>
	<path class="st35" d="M445.15,546.16c0,2.01,0.65,3.1,1.98,3.1l0.3,0c2.13,0,4.02-4.13,4.02-8.21c0-0.59,0-1.03,0-1.68
		c0-1.99-0.3-3.27-1.54-3.27c-2.1,0-4.74,4.86-4.74,7.53C445.16,544.26,445.15,545.62,445.15,546.16z"/>
	<path class="st35" d="M451.17,542.91c0,2.01,0.35,3.22,1.07,3.22l0.16,0c1.15,0,2.2-2.75,2.2-6.83c0-0.33,0-0.71,0-1.03
		c0-0.83-0.19-2.18-0.86-2.18c-1.13,0-2.56,2.69-2.56,5.35C451.18,542.08,451.17,542.37,451.17,542.91z"/>
	<path class="st36" d="M408.6,551.03c0,2.52,2.05,4.57,4.57,4.57l5.73,0c3.25,0,5.57-2.97,5.57-5.73c0-1.8,0-2.32,0-4.36
		c0-2.76-1.99-6.13-6.01-6.13c-5.18,0-9.81,5.97-9.81,9.66C408.64,549.93,408.6,550.28,408.6,551.03z"/>
	<path class="st36" d="M424.37,548.54c0,2.37,2.22,5.75,5.26,5.75l1.18,0c2.35,0,5.01-2.39,5.01-4.7c0-1.3,0-3.52,0-5
		c0-1.99-1.3-5.05-4.2-5.05c-3.74,0-7.22,4.14-7.22,6.8C424.4,546.99,424.37,548,424.37,548.54z"/>
	<path class="st37" d="M435.78,547.98c0,2.37,0.87,4.11,3.35,4.11h0.94c1.92,0,3.97-2.8,3.97-6.88c0-0.39,0-1.04,0-1.58
		c0-2.15-1.16-3.65-2.96-3.65c-2.61,0-5.28,3.12-5.28,5.79C435.8,546.41,435.78,547.44,435.78,547.98z"/>
	<path class="st38" d="M446.28,546.86c0,1.75-0.03,2.4,0.94,2.4l0.22,0c1,0,2.88-2.45,2.88-6c0-0.51,0-0.52,0-1.09
		c0-1.09-0.54-1.77-1.44-1.77c-1.54,0-2.58,2.87-2.58,4.69C446.29,545.65,446.28,546.39,446.28,546.86z"/>
	<path class="st38" d="M451.58,543.6c0,1.73,0.05,2.52,0.66,2.52l0.14,0c0.53,0,1.5-1.24,1.5-3.05c0-0.28,0-0.87,0-1.15
		c0-1.22-0.28-1.81-0.76-1.81c-0.59,0-1.52,1.16-1.52,2.46C451.59,542.79,451.58,543.14,451.58,543.6z"/>
	<path class="st33" d="M393.95,549.05c0,2.37-1.86,5.25-4.89,5.25l-1.72,0c-2.35,0-4.84-3.7-4.84-5.69c0-1.3,0-3.27,0-4.75
		c0-1.99,1.01-7.43,3.91-7.43c3.74,0,7.51,7.26,7.51,9.93C393.92,546.99,393.95,548.51,393.95,549.05z"/>
	<path class="st34" d="M382.46,543.88c0,2.67-3.54,4.85-5.87,4.85l-0.53,0c-0.93,0-3.52-1.14-3.52-5.44c0-1.37,0-1.43,0-2.98
		c0-2.1,0.87-5.58,3.38-5.58c3.23,0,6.59,5.55,6.59,8.65C382.5,544.06,382.46,543.31,382.46,543.88z"/>
	<path class="st35" d="M372.54,543.95c0,1.77-0.57,2.73-1.74,2.73l-0.26,0c-1.87,0-3.53-3.64-3.53-7.22c0-0.52,0,0.15,0-0.42
		c0-0.89,1.07-3.08,1.91-3.08c1.84,0,3.62,3.84,3.62,6.19C372.54,542.7,372.54,543.48,372.54,543.95z"/>
	<path class="st35" d="M367.79,541.45c0,2.01-0.38,3.22-1.15,3.22l-0.41,0c-1.24,0-2.13-2.75-2.13-6.83c0-0.33,0-0.71,0-1.03
		c0-0.83,0.12-1.3,0.85-1.3c1.22,0,2.84,3.23,2.84,5.17C367.78,541.31,367.79,540.91,367.79,541.45z"/>
	<path class="st36" d="M409.72,551.03c0,2.52-2.05,4.57-4.57,4.57l-5.73,0c-3.25,0-5.57-2.97-5.57-5.73c0-1.8,0-2.32,0-4.36
		c0-2.76,1.99-6.13,6.01-6.13c5.18,0,9.81,5.97,9.81,9.66C409.68,549.93,409.72,550.28,409.72,551.03z"/>
	<path class="st36" d="M393.95,549.05c0,2.37-1.86,5.25-4.89,5.25l-1.68,0c-2.64,0-4.88-2.45-4.88-5.35c0-1.3,0-2.87,0-4.35
		c0-1.99,1.3-5.05,4.2-5.05c3.74,0,7.22,4.14,7.22,6.8C393.92,546.99,393.95,548.51,393.95,549.05z"/>
	<path class="st37" d="M382.49,544.25c0,2.5-4.45,5.85-6.18,5.85l-0.56,0c-2.03,0-2.98-3.63-2.98-6.27c0-0.42,0-0.19,0-1.08
		c0-1.72,1.3-3.81,3.81-3.81c2.55,0,5.91,1.74,5.91,4.23C382.49,543.84,382.49,543.68,382.49,544.25z"/>
	<path class="st38" d="M371.69,544.82c0,1.35-0.25,1.86-0.77,1.86h-0.18c-0.83,0-2.37-1.9-2.37-4.64c0-0.4,0-0.08,0-0.52
		c0-0.84,0.44-1.69,1.19-1.69c1.26,0,2.13,2.22,2.13,3.63C371.68,543.89,371.69,544.46,371.69,544.82z"/>
	<path class="st38" d="M367.21,542.58c0,1.43-0.31,2.09-0.94,2.09h-0.14c-0.55,0-1.3-1.03-1.3-2.53c0-0.23,0-0.72,0-0.95
		c0-1.01,0.29-1.5,0.8-1.5c0.62,0,1.58,0.96,1.58,2.04C367.2,541.9,367.21,542.19,367.21,542.58z"/>
	<path d="M349.17,532.63c0,2.32,1.88,4.2,4.2,4.2l114.7,0c2.32,0,4.2-1.88,4.2-4.2L349.17,532.63z"/>
	<path class="st9" d="M479.24,535.14c0-4.65-3.49-8.42-7.8-8.42l-4.49,4.65c4.28,0.72,7.68,4.1,7.68,8.75L479.24,535.14z"/>
	<path class="st9" d="M342.85,535.01c0-4.65,3.49-8.42,7.8-8.42l4.74,4.77c-4.73,0.71-7.93,3.98-7.93,8.63L342.85,535.01z"/>
	<path class="st8" d="M426.94,607.11c0-4.47-3.63-8.1-8.1-8.1l-15.61,0c-4.47,0-8.1,3.63-8.1,8.1L426.94,607.11z"/>
	<path class="st8" d="M332.29,529.1v44.19c0,4.19,3.39,7.58,7.58,7.58v-49.67L332.29,529.1z"/>
	<path class="st9" d="M474.64,514.88c8.37,0,15.16,5.61,15.16,13.99v42.56c0,8.37-6.79,15.16-15.16,15.16V514.88z"/>
	<path class="st8" d="M385.21,615.59c-5.86,0-9.53-2.4-15.27-9.52c-6.82-8.46-22.1-27.78-25.34-32.12c-2.9-3.88,1.42-0.83,1.42-5.35
		l1.41-11.57c0,7.77,4.56,12.7,9.63,20.04c3.52,5.09,11.72,14.93,17.2,21.96c6.29,8.07,12.36,8.11,20.87,8.08
		C395.13,607.11,395.22,615.59,385.21,615.59z"/>
	<path class="st8" d="M436.86,615.59c5.86,0,9.53-2.4,15.27-9.52c6.82-8.46,22.1-27.78,25.34-32.12c2.9-3.88-1.07-1.67-1.07-6.19
		l-1.75-10.72c0,7.77-4.56,12.7-9.63,20.04c-3.52,5.09-11.72,14.93-17.2,21.96c-6.29,8.07-12.36,8.11-20.87,8.08
		C426.94,607.11,426.86,615.59,436.86,615.59z"/>
	<path class="st8" d="M489.8,529.1v44.19c0,4.19-3.39,7.58-7.58,7.58v-49.67L489.8,529.1z"/>
	<path class="st8" d="M474.66,534.65v61.67c4.19,0,7.58-3.39,7.58-7.58v-46.51C482.24,538.04,478.85,534.65,474.66,534.65z"/>
	<path class="st9" d="M474.64,514.43c8.37,0,8.33,4.3,11.2,7.14l3.96,7.35c0,9.63-6.79,16.54-15.16,16.54V514.43z"/>
	<path d="M494.85,523.09c1.42-2.38,0.64-5.45-1.74-6.87l-31.48-18.91c-2.38-1.42-5.45-0.64-6.87,1.74L494.85,523.09z"/>
	<path class="st8" d="M496.58,559.96c2.52-2.52,13.53-13.53,16.81-16.81c5.83-5.83,5.81-10.28,5.81-18.05l0.05,7.5
		c0,9.43-0.46,15.88-7.06,22.48c-3.39,3.39-9.8,9.8-14.14,14.14c-3.39,3.39-8.26,2.25-8.26-3.18c0-1.3,0-5.91,0-7.96
		c0-8.78,7.6-9.34,7.6-9.34v12.8L496.58,559.96z"/>
	<path class="st8" d="M347.45,534.67v61.67c-4.19,0-7.58-3.39-7.58-7.58v-46.51C339.87,538.06,343.27,534.67,347.45,534.67z"/>
	<path class="st9" d="M347.45,514.43c-8.37,0-11.2-1.23-11.2,7.14l-3.96,7.35c0,9.63,6.79,16.54,15.16,16.54V514.43z"/>
	<path d="M327,523.03c-1.41-2.38-0.62-5.46,1.76-6.87l31.54-18.81c2.38-1.41,5.46-0.62,6.87,1.76L327,523.03z"/>
	<path class="st4" d="M314.4,432.32c3.01,38.18,22.81,47.34,36.83,47.34l-0.09-4.24c-18.56,0-29.8-18.34-30.81-38.91L314.4,432.32z"
		/>
	<path d="M537.61,415.16h-17.29c-9.58,0-17.48-9.23-37.36-9.23c-1.68,0-20.16,0.14-21.83,0.14c-20.91,0-26.42,10.95-37.71,10.95
		c0,0-23.98,0-28.01,0c-11.29,0-16.8-10.95-37.71-10.95c-1.67,0-20.15-0.14-21.83-0.14c-19.88,0-27.79,9.23-37.37,9.23H281.2
		c-1.02,0.41-0.02,6.99,1.61,7.6h13.07c5.94,0,7.66,3.54,8.17,9.41c3.25,38.18,24.68,47.34,39.85,47.34c2.16,0,9.45,0.01,12.4,0.01
		c21.77,0,35.41-17.81,42.71-47.7c0,0-1.91-0.73-1.91-3.51c0-2.53,2.28-4.21,5.77-4.21c3.23,0,13.1,0,13.1,0
		c3.49,0,5.77,1.68,5.77,4.21c0,2.78-1.91,3.51-1.91,3.51c7.3,29.9,20.93,47.7,42.71,47.7c2.95,0,10.25-0.01,12.4-0.01
		c15.17,0,36.59-9.16,39.85-47.34c0.5-5.87,2.22-9.41,8.16-9.41H536C537.63,422.15,538.63,415.57,537.61,415.16z M354.63,475.28
		c-2.24,0-6.77-0.01-10.84-0.01c-21.06,0-33.42-20.18-33.42-41.94c0-16.21,13.44-23.03,31.11-23.03c1.99,0,10.03,0.15,12.13,0.15
		c19.8,0,35.96,7.83,35.96,25.38C389.58,457.98,375.13,475.28,354.63,475.28z M475.01,475.28c-2.15,0-8.6,0.01-10.84,0.01
		c-20.49,0-34.95-17.3-34.95-39.45c0-17.55,16.16-25.38,35.96-25.38c2.1,0,10.14-0.15,12.13-0.15c17.68,0,31.11,6.82,31.11,23.03
		C508.43,455.1,496.08,475.28,475.01,475.28z"/>
	<path class="st8" d="M324.03,569.08c3.39,3.39,8.26,2.25,8.26-3.18c0-1.3,0-6.21,0-8.25c-0.01-8.51-7.59-9.04-7.59-9.04v11.28
		l2.78,1.91c-4.64-4.64-21.69-21.69-23.3-23.29c-5.83-5.83-5.81-10.28-5.81-18.05l-6.62,0.93c0,9.43,0.46,15.88,7.06,22.48
		C304.01,549.06,319.7,564.74,324.03,569.08z"/>
	<path class="st8" d="M474.92,523.7c1.1-7.54-4.11-14.54-11.65-15.64l-13.31-1.97c-7.53-1.1-14.53,4.12-15.63,11.66L474.92,523.7z"
		/>
	<path class="st8" d="M347.18,523.7c-1.1-7.54,4.11-14.54,11.65-15.64l13.31-1.97c7.53-1.1,14.53,4.12,15.63,11.66L347.18,523.7z"/>
	<path class="st9" d="M398.65,287.88c0-3.64,3.04-6.29,6.62-6.29l20.07,0c3.48,0,6.62,2.65,6.62,6.29L398.65,287.88z"/>
	<path class="st9" d="M403.8,287.88c0-5.38,4.48-9.28,9.77-9.28l21.25,0c5.13,0,9.77,3.91,9.77,9.28L403.8,287.88z"/>
	<path class="st9" d="M372.26,269.23c0,7.08,5.81,12.23,12.88,12.23l23.86,0c7.02,0,12.88-5.15,12.88-12.23L372.26,269.23z"/>
	<path class="st9" d="M372.26,269.23c0,6.11,5.01,10.55,11.11,10.55l33.65,0c6.05,0,11.11-4.44,11.11-10.55L372.26,269.23z"/>
	<path class="st9" d="M336.87,275.45c0-4.81,3.76-8.3,8.74-8.3l11.31,0c4.54,0,8.74,3.49,8.74,8.3L336.87,275.45z"/>
	<g>
		<path class="st8" d="M389.9,230.39c1.01,2.58,16.45,3.64,13.76,4.78l-53.74,16.47c-3.08,1.31-6.26,1.67-9.54,2.29
			c-2.07,0.39-4.07,1.11-5.92,2.12c-1.66,0.91-3.19,2.05-4.76,3.09c-1.39,0.92-2.53,2.31-4,3.07c-1.21,0.62-2.61,0.73-3.91,1.1
			c-3.01,0.86-5.41,3.09-7.67,5.25c-2.26,2.15-4.57,4.37-5.92,7.18c-0.48,0.99-0.83,2.04-1.39,2.98c-0.7,1.18-1.6,1.5-2.58,2.36
			c-0.9,0.79-1.61,1.78-2.31,2.75c-2.99,4.14-5.97,8.28-8.96,12.42c-0.95,1.32-1.93,2.66-3.24,3.62c-0.63,0.46-1.37,0.82-2.15,0.78
			s-1.65,0.3-1.71-0.47c-0.03-0.31,0.14-1.54,0.23-1.84c1.61-5.64,3.24-11.32,6-16.49c1.25-2.34,2.72-4.55,3.96-6.9
			c0.6-1.15,1.16-2.34,2.04-3.29c1-1.08,1.99-1.18,3.31-1.53c1.25-0.33,2.46-1.14,3.52-1.85c3.71-2.48,7.12-5.38,10.33-8.47
			c1.61-1.55,3.18-3.15,4.71-4.77c1.35-1.43,2.47-3.04,3.81-4.44c0.5-0.52,1.05-1.07,1.76-1.2c1.35-0.25,2.56,1.1,3.93,1.01
			c0.75-0.05,1.4-0.52,2-0.97c6.6-4.91,13.82-9.01,21.42-12.15c0.28-0.12,0.58-0.23,0.88-0.2c0.32,0.04,0.6,0.23,0.86,0.41
			c1.43,0.96,3.08,1.58,4.78,1.81c1.18,0.16,2.53,0.19,3.7-0.09c1.32-0.32,2.63-1.14,3.87-1.7c2.46-1.13,4.92-2.26,7.37-3.39
			c1.77-0.81,3.54-1.62,5.31-2.44c0.28-0.13,1.71-0.72,1.99-0.91C388.45,226.14,389.9,230.39,389.9,230.39z"/>
	</g>
	<g>
		<path class="st9" d="M427.28,230.39c-1.01,2.58-13.82,3.52-11.13,4.66l51.11,16.59c3.08,1.31,6.26,1.67,9.54,2.29
			c2.07,0.39,4.07,1.11,5.92,2.12c1.66,0.91,3.19,2.05,4.76,3.09c1.39,0.92,2.53,2.31,4,3.07c1.21,0.62,2.61,0.73,3.91,1.1
			c3.01,0.86,5.41,3.09,7.67,5.25c2.26,2.15,4.57,4.37,5.92,7.18c0.48,0.99,0.83,2.04,1.39,2.98c0.7,1.18,1.6,1.5,2.58,2.36
			c0.9,0.79,1.61,1.78,2.31,2.75c2.98,4.14,5.97,8.28,8.96,12.42c0.95,1.32,1.93,2.66,3.24,3.62c0.63,0.46,1.37,0.82,2.15,0.78
			c0.78-0.04,1.65,0.3,1.71-0.47c0.03-0.31-0.14-1.54-0.23-1.84c-1.61-5.64-3.24-11.32-6-16.49c-1.25-2.34-2.72-4.55-3.96-6.9
			c-0.6-1.15-1.16-2.34-2.04-3.29c-1-1.08-1.99-1.18-3.31-1.53c-1.25-0.33-2.46-1.14-3.52-1.85c-3.71-2.48-7.12-5.38-10.33-8.47
			c-1.61-1.55-3.18-3.15-4.71-4.77c-1.35-1.43-2.47-3.04-3.81-4.44c-0.5-0.52-1.05-1.07-1.76-1.2c-1.35-0.25-2.56,1.1-3.93,1.01
			c-0.75-0.05-1.4-0.52-2-0.97c-6.6-4.91-13.82-9.01-21.42-12.15c-0.28-0.12-0.58-0.23-0.88-0.2c-0.32,0.04-0.6,0.23-0.86,0.41
			c-1.43,0.96-3.08,1.58-4.78,1.81c-1.18,0.16-2.53,0.19-3.7-0.09c-1.32-0.32-2.63-1.14-3.87-1.7c-2.46-1.13-4.92-2.26-7.37-3.39
			c-1.77-0.81-3.54-1.62-5.31-2.44c-0.28-0.13-1.71-0.72-1.99-0.91C428.73,226.14,427.28,230.39,427.28,230.39z"/>
	</g>
	<path class="st8" d="M394.94,240.38c0,3.55,2.95,6.12,6.45,6.12l35.08,0c3.7,0,6.45-2.58,6.45-6.12L394.94,240.38z"/>
	<path class="st9" d="M416.47,235.3c3.41-0.31,27.56,1.74,27.56,5.15l-47.15,0c0-3.41,2.74-5.68,6.16-5.92
		c5.51-0.39,12.17,0.04,12.17,0.04L416.47,235.3z"/>
	<path class="st8" d="M389.45,276.08c0,3.18,2.64,5.48,5.77,5.48l17.49,0c3.23,0,5.77-2.31,5.77-5.48L389.45,276.08z"/>
	<path class="st9" d="M351.72,259.18c0,5.83,4.54,10.06,10.6,10.06l23.73,0c1.96,0,4.42-4.24,4.42-10.06L351.72,259.18z"/>
	<path class="st9" d="M376.96,259.18c0,2.5,1.95,4.32,4.55,4.32l8.34,0c2.52,0,4.55-1.82,4.55-4.32L376.96,259.18z"/>
	<path class="st8" d="M381.78,263.49c0,3.3,2.7,6,6,5.7l45.21,0c3.3,0.3,6-2.4,6-5.7L381.78,263.49z"/>
	<path class="st9" d="M367.96,243.13c0,2.79,2.22,4.82,5.08,4.82l11.7,0c2.97,0,5.08-2.03,5.08-4.82L367.96,243.13z"/>
	<path class="st9" d="M340.69,252.74c0,3.75,2.97,6.47,6.81,6.47l15.7,0c3.98,0,6.81-2.72,6.81-6.47L340.69,252.74z"/>
	<path class="st39" d="M403.33,252.78c0-2.79-2.13-4.82-5.08-4.82l-15.39,0c-2.72,0-5.08,2.03-5.08,4.82L403.33,252.78z"/>
	<path class="st8" d="M477.63,273.58c0-3.95,3.3-6.82,7.19-6.82l8.35,0c3.97,0,7.19,2.87,7.19,6.82L477.63,273.58z"/>
	<path class="st8" d="M464.2,255.1c0,3.42,2.85,5.9,6.21,5.9l7.22,0c3.43,0,6.21-2.48,6.21-5.9L464.2,255.1z"/>
	<path class="st9" d="M455.26,250.67c0,2.56,2.03,4.41,4.65,4.41l12.09,0c2.71,0,4.65-1.86,4.65-4.41L455.26,250.67z"/>
	<path class="st9" d="M461.97,278.61c0-4.76-3.98-8.23-8.66-8.23l-10.07,0c-4.78,0-8.66,3.46-8.66,8.23L461.97,278.61z"/>
	<path class="st9" d="M471.5,266.61c0,2.79-2.22,4.82-5.08,4.82l-12.17,0c-2.97,0-5.08-2.03-5.08-4.82L471.5,266.61z"/>
	<path class="st39" d="M442.34,257.4c0,2.79,2.41,4.82,5.08,4.82l15.39,0c2.76,0,5.08-2.03,5.08-4.82L442.34,257.4z"/>
	<path class="st39" d="M467.98,273.16c0,2.79,2.41,4.82,5.08,4.82l8.04,0c2.76,0,5.08-2.03,5.08-4.82L467.98,273.16z"/>
	<path class="st9" d="M319.51,263.99c0,2.79,2.41,4.82,5.08,4.82l8.04,0c2.76,0,5.08-2.03,5.08-4.82L319.51,263.99z"/>
	<path class="st9" d="M473.43,260.97c0,3.33,2.64,5.75,6.06,5.75l19.01,0c3.54,0-3.5-2.42-3.5-5.75L473.43,260.97z"/>
	<path class="st9" d="M399.28,256.55c0,4.06,3.3,7.01,7.38,7.01l22.37,0c4.13,0,7.38-2.95,7.38-7.01L399.28,256.55z"/>
	<path class="st9" d="M447.83,257.38c0-2.93-2.42-5.05-5.32-5.05l-10.55,0c-2.96,0-5.32,2.13-5.32,5.05L447.83,257.38z"/>
	<path class="st8" d="M428.12,246.42c0,2.48,1.9,4.29,4.52,4.29l25.68,0c2.42,0,4.52-1.81,4.52-4.29L428.12,246.42z"/>
	<path class="st39" d="M409.59,245.14c0,2.79,2.13,4.82,5.08,4.82l15.39,0c2.72,0,5.08-2.03,5.08-4.82L409.59,245.14z"/>
	<path class="st0" d="M267.2,691.23c-15.52,12.69-26.75,38.75-34.75,77.29c-1.8,8.68-4.47,20.82-4.47,20.82
		c-0.71,3.27,1.37,6.5,4.63,7.21c0,0,4.74-21.22,5.55-24.76c6.86-30.05,12.93-57.22,30.54-74.47L267.2,691.23z"/>
	<path d="M264.46,686.7c-15.52,12.69-28.74,35.77-36.26,71.86c-1.81,8.68-4.47,20.81-4.47,20.81c-0.71,3.27,1.37,6.5,4.63,7.21
		c0,0,4.73-21.23,5.55-24.76c6.53-28.09,14.37-52.1,31.99-69.35L264.46,686.7z"/>
	<path d="M320.76,629.54l-56.17,49.36c-1.7,1.49-2.33,3.71-1.91,5.78l-0.03,0.02l18.21,71.63c0.82,3.24,4.12,5.2,7.36,4.38
		l-19.62-77.26l52.16-45.84V629.54z"/>
	<path d="M520.39,266.44c-2.2,1.12-4.95,0.92-6.54-0.59l-22.05-20.89c-1.4,2.13-4.02,2.7-6.29,1.35l-25.06-14.88
		c-0.23,0.61-0.57,1.13-0.99,1.56l-0.03,0.08l-0.05-0.01c-1.14,1.12-2.85,1.56-4.66,1.02l-27.06-8.05
		c-0.89,2.05-2.83,3.39-5.19,3.39h-27.21c-2.36,0-4.31-1.34-5.19-3.39l-27.06,8.05c-1.81,0.54-3.51,0.1-4.66-1.02l-0.05,0.01
		l-0.03-0.08c-0.42-0.43-0.76-0.95-0.99-1.56l-25.06,14.88c-2.27,1.35-4.89,0.77-6.29-1.35l-22.05,20.89
		c-1.59,1.51-4.35,1.71-6.54,0.59l-16.82,32.64c0.04,1.18-0.07,2.33,0.86,2.22c2.94-0.35,0.83,1.93,4.48-0.28l14.65-28.01
		c2.23-0.1,4.49-1.07,6.43-2.91l19.33-17.95c2.54,0.95,5.49,0.72,8.19-0.89l21.63-12.89c2.19,1.38,5.02,1.77,7.96,0.89l23.49-6.99
		c1.73,1.51,4.03,2.41,6.5,2.41h29.66c2.47,0,4.77-0.9,6.5-2.41l23.49,6.99c2.95,0.88,5.77,0.49,7.96-0.89l21.63,12.89
		c2.7,1.61,5.65,1.85,8.19,0.89l19.33,17.95c1.94,1.84,4.2,2.8,6.43,2.91l14.65,28.01c3.65,2.21,1.54-0.07,4.48,0.28
		c0.93,0.11,0.83-1.04,0.86-2.22L520.39,266.44z"/>
</g>
</svg>
