<?xml version="1.0" encoding="utf-8"?>
<!-- Generator: Adobe Illustrator 25.2.3, SVG Export Plug-In . SVG Version: 6.00 Build 0)  -->
<svg version="1.1" xmlns="http://www.w3.org/2000/svg" xmlns:xlink="http://www.w3.org/1999/xlink" x="0px" y="0px"
	 viewBox="0 0 151.18 151.18" style="enable-background:new 0 0 151.18 151.18;" xml:space="preserve">
<style type="text/css">
	.st0{fill:#4274F6;}
	.st1{fill:#FFFFFF;}
	.st2{fill:#B3C7FB;}
	.st3{fill:none;}
</style>
<g id="Background">
</g>
<g id="Laag_1">
	<g>
		<g>
			<path class="st0" d="M 0,12.42 C 0,5.56 5.56,0 12.42,0 h 126.34 c 6.86,0 12.42,5.56 12.42,12.42 v 126.34 c 0,6.86 -5.56,12.42 -12.42,12.42 H 12.42 C 5.56,151.18 0,145.62 0,138.76 Z"/>
			<g>
				<g>
					<g>
						<g>
							<g>
								<rect x="28.35" y="40.77" class="st1" width="28.35" height="7.56"/>
							</g>
						</g>
						<g>
							<g>
								<rect x="60.86" y="40.77" class="st1" width="28.35" height="7.56"/>
							</g>
						</g>
						<g>
							<g>
								<rect x="94.49" y="40.77" class="st1" width="28.35" height="7.56"/>
							</g>
						</g>
					</g>
					<g>
						<g>
							<g>
								<rect x="28.35" y="53.19" class="st1" width="28.35" height="7.56"/>
							</g>
						</g>
						<g>
							<g>
								<rect x="60.86" y="53.19" class="st1" width="28.35" height="7.56"/>
							</g>
						</g>
						<g>
							<g>
								<rect x="94.49" y="53.19" class="st1" width="28.35" height="7.56"/>
							</g>
						</g>
					</g>
					<g>
						<g>
							<g>
								<rect x="60.86" y="65.61" class="st1" width="28.35" height="7.56"/>
							</g>
						</g>
					</g>
					<g>
						<g>
							<g>
								<rect x="60.86" y="78.02" class="st1" width="28.35" height="7.56"/>
							</g>
						</g>
					</g>
					<g>
						<g>
							<g>
								<rect x="60.86" y="90.44" class="st1" width="28.35" height="7.56"/>
							</g>
						</g>
					</g>
					<g>
						<g>
							<g>
								<rect x="60.86" y="102.86" class="st1" width="28.35" height="7.56"/>
							</g>
						</g>
					</g>
					<g>
						<g>
							<g>
								<rect x="60.86" y="115.28" class="st1" width="28.35" height="7.56"/>
							</g>
						</g>
					</g>
				</g>
				<path class="st2" d="M28.35,35.91c0-4.17,3.38-7.56,7.56-7.56h79.37c4.17,0,7.56,3.38,7.56,7.56H94.49z"/>
			</g>
		</g>
	</g>
</g>
</svg>
